<?xml version="1.0" encoding="UTF-8"?><svg id="b" xmlns="http://www.w3.org/2000/svg" viewBox="0 0 32 32"><g id="c"><circle cx="16" cy="16" r="16" style="fill:#2a8cd8;"/><path d="M23.95,12.05c.01,.18,.01,.36,.01,.53,0,5.42-4.12,11.66-11.66,11.66-2.23,0-4.42-.63-6.29-1.84,.33,.04,.66,.05,.99,.05,1.84,0,3.64-.61,5.09-1.75-1.75-.03-3.29-1.17-3.83-2.84,.26,.04,.51,.06,.77,.06,.36,0,.73-.05,1.08-.14-1.91-.39-3.29-2.07-3.29-4.02v-.05c.57,.32,1.2,.5,1.85,.52-1.81-1.2-2.36-3.61-1.27-5.48,2.08,2.56,5.15,4.12,8.45,4.29-.07-.31-.1-.62-.1-.94,0-2.27,1.84-4.1,4.11-4.1,1.13,0,2.21,.47,2.99,1.29,.92-.18,1.8-.51,2.6-.99-.31,.95-.95,1.75-1.8,2.26,.81-.09,1.61-.31,2.36-.63-.56,.82-1.26,1.53-2.06,2.12h0Z" style="fill:#fff;"/></g></svg>