<svg xmlns="http://www.w3.org/2000/svg" width="36" height="29.238" viewBox="0 0 36 29.238"><path d="M735.3,7722.927c.023.32.023.64.023.96,0,9.754-7.424,20.992-20.993,20.992A20.849,20.849,0,0,1,703,7741.567a15.055,15.055,0,0,0,1.781.091,14.776,14.776,0,0,0,9.16-3.152,7.389,7.389,0,0,1-6.9-5.117,9.248,9.248,0,0,0,1.393.115,7.79,7.79,0,0,0,1.942-.252,7.379,7.379,0,0,1-5.917-7.241v-.091a7.431,7.431,0,0,0,3.335.936,7.39,7.39,0,0,1-2.284-9.868,20.974,20.974,0,0,0,15.213,7.721,8.337,8.337,0,0,1-.182-1.69,7.385,7.385,0,0,1,12.769-5.048,14.536,14.536,0,0,0,4.682-1.782,7.36,7.36,0,0,1-3.243,4.066,14.778,14.778,0,0,0,4.249-1.142,15.834,15.834,0,0,1-3.7,3.814Z" transform="translate(-703.001 -7715.641)" fill="#fff"/></svg>