<svg xmlns="http://www.w3.org/2000/svg" viewBox="0 0 340.16 129.07"><path d="M3.69,1.93a.9.9,0,0,0-.43,0,.19.19,0,0,0-.14.17A.3.3,0,0,1,3,2.15c-.09,0-.14.18-.17.24l-.1.16-.19.24s0,.06,0,.1a.35.35,0,0,1-.06.22s-.28.43-.32.52-.26.66-.29.72a4.62,4.62,0,0,0-.13.51c0,.14-.59,2.28-.59,2.44S1,7.57,1,8.11s-.07.78-.09.94S.71,13,.73,13.23s0,.37,0,.52,0,.37,0,.6,0,4.12,0,4.27-.25.32,0,.5c0,0,.06,0,.06.13s-.1.2,0,.24.05.09,0,.16a.11.11,0,0,0,0,.17c.08.05,0,.15,0,.22s0,.14,0,.18a.78.78,0,0,1,0,.53c-.07.15-.13.45-.05.54s0,.13,0,.17-.21.11,0,.4a.86.86,0,0,1,0,.56.07.07,0,0,0,0,.12c.08.07,0,.2,0,.27s0,.07,0,.12-.24.16,0,.38c0,0,0,.24,0,.29s-.28.24,0,.25a.47.47,0,0,1,0,.27c-.06.1-.13.14-.05.18a.13.13,0,0,1,0,.18c-.09.12-.11.23,0,.27s0,.13,0,.13a.12.12,0,0,0,.06.21,1.23,1.23,0,0,1,0,.3c0,.17-.17,2.62-.18,2.79S.26,30.72.28,31s0,.28,0,.28.09.11,0,.18l0,.22L.12,33.38s.11.16.05.25-.14.21,0,.22v.67s-.2.14,0,.19l0,.09s-.23.14,0,.22c0,0,0,.2-.08.23S.19,39,.19,39a34.68,34.68,0,0,0,.67,5.22s0,.15.09.17L1,44.7c0,.11.38,1.69.57,2.23v.21s-.05.14.12.35a1.7,1.7,0,0,1,.1.48,1.24,1.24,0,0,0,.14.64.72.72,0,0,1,.19.39c0,.16-.07.2.1.25,0,0,0,.4,0,.62a1,1,0,0,0,.19.65c.15.17,0,.45.24.71a2.61,2.61,0,0,1,.33.64c.11.22.47,1.06.59,1.2a.45.45,0,0,1,.12.24.46.46,0,0,0,.06.19c.06.06.33.42.4.49s0,.18.15.27,0,.24.14.27c0,0,0,.11.08.12a.36.36,0,0,1,.12.05l.14.24s0,.23.15.25a2.47,2.47,0,0,0,.2.4,2.11,2.11,0,0,0,.17.22s0,.21.09.21.07.11.07.11a7.16,7.16,0,0,0,.81,1.22c.25.2.11.11.11.11s0,.22.18.26l0,.1a2.36,2.36,0,0,0,.27.32s.11,0,.11.17l.72.92a23.57,23.57,0,0,0,2.43,2.62s.12.09.12.17.21.16.21.16.12-.13.15,0a.32.32,0,0,0,.12.24l.12,0a5.63,5.63,0,0,0,.51.38c.07,0,.18.08.19.15s.09.09.18.12a.45.45,0,0,1,.16.18.62.62,0,0,0,.26.15,2.89,2.89,0,0,1,.5.33c.07,0,.1,0,.12.1s0,.13,0,.13a2.3,2.3,0,0,1,.39.14,2.88,2.88,0,0,1,.52.34c.06.09.23.08.29.12a.5.5,0,0,1,.16.14,5.52,5.52,0,0,0,.55.34c.13.06.3.11.57.21a1.89,1.89,0,0,1,.49.24.45.45,0,0,0,.27.13l.13.11a.81.81,0,0,0,.27.09,1.56,1.56,0,0,1,.51.2c.13.1.19.21.33.18s.25-.05.29,0,.32.08.35.08.05.08.13.12a.2.2,0,0,0,.15,0,1.4,1.4,0,0,0,.41.13c.22.05.32.05.34.12s.16,0,.24,0,.84.27,1.12.32l1.25.3c.19,0,.52,0,.59.07s.24.13.37.17.14-.1.2-.08l.19.08c.09,0,1.56.12,2.06.14a3.41,3.41,0,0,1,.84.11.33.33,0,0,0,.21,0l.67,0s0,.19.3,0h.09l.55,0a.34.34,0,0,0,.3,0h.21l1.5-.07,2.54-.22a11.88,11.88,0,0,0,1.41-.19,37.42,37.42,0,0,0,5.08-1.66s.13-.11.21-.06.34-.16.82-.36a.37.37,0,0,1,.25,0c.12,0,.27-.21.3-.36s.22,0,.3,0a3.9,3.9,0,0,0,.45-.4s.22-.1.36-.18a8,8,0,0,0,1-.82s.35-.13.35-.29l3.05-2.6s0-.21.19-.19.56-.52.63-.52.74-.45.79-.79a6.91,6.91,0,0,1,.59-.65,53.87,53.87,0,0,0,3.88-5.14,2.51,2.51,0,0,0,.33-.61,11.26,11.26,0,0,1,.72-1,.57.57,0,0,1,.16-.27c.08,0,1.37-3.08,1.61-3.71s1.29-3.58,1.37-4.08.14-.37.16-.39.55-1.42.64-1.69.63-2.88.63-2.88l.13-.2c.08-.12,0-.49,0-.6s.14-.31.14-.31a1.23,1.23,0,0,1,0-.34c0-.11.5-2.83.55-2.95a6.79,6.79,0,0,0,.16-.77c.05-.23.53-4.1.58-4.24a1.36,1.36,0,0,0,.11-.34c0-.15.19-3.42.26-3.95s.29-2.17.34-2.44a1.18,1.18,0,0,1,.13-.37.63.63,0,0,0,0-.14s.06-.05.06-.07S60,22.06,60,22a1.59,1.59,0,0,1,.07-.46l.18-.56s0-.27.05-.46.29-1.29.37-1.61a7.1,7.1,0,0,1,.19-.77A.34.34,0,0,0,61,18c0-.12-.08-.18,0-.26a.9.9,0,0,0,.11-.24c0-.1,0-.12,0-.26a5.32,5.32,0,0,0,.21-.77,2.9,2.9,0,0,1,.05-.62,1.62,1.62,0,0,1,.26-.64c.14-.1,0-.18.08-.34s.09-.81.13-.92a1.09,1.09,0,0,0,.19-.52,6.94,6.94,0,0,1,0-1c.06-.16.19-.26.19-.34a1.21,1.21,0,0,1,0-.47,16.67,16.67,0,0,0,.24-1.88,12.55,12.55,0,0,0,0-2c0-.44-.1-.74-.1-.74a1.3,1.3,0,0,1-.08-.21,5,5,0,0,0-.14-.58A10.52,10.52,0,0,0,61.71,5,10.23,10.23,0,0,1,61.23,4c0-.13-.32-.34-.34-.42a.23.23,0,0,0-.08-.18.58.58,0,0,1-.12-.08s-.24-.19-.37-.27A.73.73,0,0,0,60,3s-.4-.13-.69.4a3.08,3.08,0,0,0,.08,1.33,6.19,6.19,0,0,1,.16,1.07.15.15,0,0,1,0,.07.21.21,0,0,0,0,.31s.08,0,0,.14-.08.14-.07.2,0,.14-.16.21-.15,0-.32,0-.4-.39-.54-.59,0-.25-.08-.39a.77.77,0,0,0-.2-.35A.34.34,0,0,1,58,5.18c0-.11-.46-.93-.57-1.13a1,1,0,0,1-.18-.41c0-.08-.08-.1-.1-.14s-.54-.83-.62-.9a1.77,1.77,0,0,1-.29-.44A1,1,0,0,0,56,1.93c0-.05-.89-.88-1-.93S55,.91,55,.89L54.35.47a1.44,1.44,0,0,0-.5-.09.88.88,0,0,0-.65.24s-.09.11-.06.5a.33.33,0,0,0,0,.19c0,.09.15.4.19.48a2.48,2.48,0,0,1,.18.31,2.51,2.51,0,0,1,.08.48c0,.14,0,.14.05.15a1.46,1.46,0,0,1,.29.39c.11.22.25.73.31.88s.26.48.33.64a4.6,4.6,0,0,1,.27.87c0,.18.09.65.08.76s0,.26-.27.32a.47.47,0,0,1-.44-.09,10.74,10.74,0,0,1-.81-.75c-.07-.11-.75-.75-.82-.83s-.41-.49-.55-.63-.7-.66-.82-.79a6.34,6.34,0,0,1-.53-.62c0-.06,0-.06-.26-.22s-.15-.21-.23-.29a3.3,3.3,0,0,0-.63-.56c-.24-.14-.51-.36-.57-.39s0-.13-.08-.15a.52.52,0,0,1-.13-.06l-.12-.14S48.52,1,48.48,1a1.91,1.91,0,0,1-.2,0A2.21,2.21,0,0,1,48,.71L47.85.65c-.06,0-.2-.15-.32-.16a1,1,0,0,0-.61,0c-.27.12-.28.16-.28.16l-.13,0s0,.14,0,.18-.13.11-.06.2,0,.14-.06.16a.35.35,0,0,0-.13.24,1,1,0,0,0,.22.32c.08.12,0,.12.06.2a11,11,0,0,1,.71,1,5.34,5.34,0,0,0,.43.58c.13.15.38.46.41.48a1.42,1.42,0,0,1,.11.18c.05,0,.12,0,.17.12s0,.17.09.23.06,0,.14.07a.51.51,0,0,1,.24.18l.53.72c.09.14.19.37.24.44s.18,0,.18.21a1.37,1.37,0,0,0,.15.18c.05,0,.12.18.16.22s.24.34.33.43a.59.59,0,0,1,.16.3l.2.49a2.29,2.29,0,0,1,0,.59.38.38,0,0,1-.29.28c-.13,0-.33-.14-.4-.14a.41.41,0,0,1-.17,0c-.05,0-.05-.17-.1-.2s-.19,0-.27-.05a1.34,1.34,0,0,1-.25-.23,4.51,4.51,0,0,1-.47-.4c0-.06,0-.12-.12-.18s-.06-.14-.12-.18a1.19,1.19,0,0,0-.2-.08.72.72,0,0,1-.14-.19,2.41,2.41,0,0,0-.33-.37c-.05,0-.26-.26-.3-.3L47,5.91c-.05,0,0-.08-.08-.12s-.1,0-.14,0a2.34,2.34,0,0,1-.23-.22.25.25,0,0,0-.1-.15.27.27,0,0,0-.16,0c-.09,0-.18-.11-.21-.14L45.84,5s0-.09-.07-.15a.36.36,0,0,0-.18-.08L45,4.41l-.16-.13s-.09,0-.14,0A3.2,3.2,0,0,1,44.32,4,.82.82,0,0,0,44,3.9c-.06,0-.28,0-.35-.07a.45.45,0,0,0-.42.08,1.09,1.09,0,0,0-.29.28c0,.07-.08.21-.1.24s-.12.16-.06.23,0,.16.06.23,0,.42.07.53.07.14.07.17a.27.27,0,0,0,.08.2,7.75,7.75,0,0,0,.5.68A7.1,7.1,0,0,0,44,7c.11.13.19.19.18.22a.26.26,0,0,0,.11.18s.08.08.11.12.06,0,.12.07.11.23.17.29a.54.54,0,0,1,.13.19c0,.05.27.25.32.32s.06.2.09.25a.22.22,0,0,0,.16.15.5.5,0,0,1,.17.12c0,.05,0,.16.09.21a2.86,2.86,0,0,0,.35.43c.14.12.43.55.53.66s0,.15.08.19a.41.41,0,0,1,.13.1,2.24,2.24,0,0,1,.3.54,1.29,1.29,0,0,1,0,.57,1.3,1.3,0,0,1-.26.31.34.34,0,0,1-.22.09,1.82,1.82,0,0,1-.33,0L46.16,12a4.38,4.38,0,0,0-.44-.08l-.83-.36c-.08,0-.25,0-.37-.08s-.64-.35-.75-.38-.55-.2-.77-.24a1.71,1.71,0,0,0-.56,0,1.17,1.17,0,0,0-.32.18,2.39,2.39,0,0,0-.16.22.26.26,0,0,1-.12.05s-.1.12-.1.21-.06.22-.06.29a1,1,0,0,0,.06.4.76.76,0,0,1,.11.33.63.63,0,0,0,.06.27,1,1,0,0,0,.14.18c.06,0,.34.5.42.6a.49.49,0,0,1,.1.19,4.16,4.16,0,0,0,.38.4,8.61,8.61,0,0,1,.74.74c.1.13.22.26.28.33l.88.8c.2.15.9.77,1.06.91a11,11,0,0,1,.72.83,10.09,10.09,0,0,1,.62,1,3.3,3.3,0,0,1,.19.37c0,.07.11.1.14.16s.39.8.45.94.15.41.16.46.11.19.13.27l.42,1a1.3,1.3,0,0,1,.08.27.54.54,0,0,0,.08.17,5.94,5.94,0,0,1,.3.77c.06.22.06.39.09.45s.09.25.11.36.28,1,.29,1.22.14,1.09.16,1.19,0,.31,0,.38a3,3,0,0,1,.07.35c0,.13.06,1,.08,1.08s0,1.23,0,1.31,0,.11,0,.12-.1.08,0,.17a1.25,1.25,0,0,1,0,.19c0,.05,0,1,0,1.09S50,31.79,50,32l-.08.7a1.7,1.7,0,0,0,0,.26c0,.16,0,.42,0,.5s-.07.34-.08.43,0,.3,0,.38-.13.17-.14.21a1,1,0,0,1-.08.18.21.21,0,0,0,0,.21c.08.06,0,.14,0,.16s-.11.17,0,.25a.13.13,0,0,1,0,.16s-.12.07,0,.16a.21.21,0,0,1,0,.26s-.1,0-.13,0,.07.1.11.18,0,.12,0,.16-.18.1-.14.13a.09.09,0,0,1,.05.1c0,.09,0,.13-.05.15s-.07,0-.07.1a.76.76,0,0,1,0,.16s0,.11,0,.15a.07.07,0,0,1-.05.08.08.08,0,0,0-.09.06c0,.07,0,.23-.05.3s0,.09,0,.11-.05,0-.06.05,0,.13,0,.15a.34.34,0,0,0,0,.22c0,.1,0,.12.08.17s0,.15,0,.17-.12.06-.13.09,0,.25,0,.28-.11.11-.11.14,0,0,0,.07,0,.13,0,.15a.2.2,0,0,1-.06.09s-.12.06,0,.11,0,.06,0,.09-.08.34-.1.41-.24.8-.32,1-.42,1.06-.48,1.2-.29.68-.33.78a2.94,2.94,0,0,1-.19.29c0,.05-.4.79-.45.88s-.33.71-.37.76a1.11,1.11,0,0,0-.08.29,1.31,1.31,0,0,1-.12.27,5.22,5.22,0,0,0-.33.48c0,.07-.12.2-.13.25s0,.12,0,.17a.63.63,0,0,0-.07.12.74.74,0,0,0-.1.26,4,4,0,0,1-.28.43s0,.13-.07.18a1.74,1.74,0,0,0-.12.14s0,.09,0,.15-.15.21-.17.26,0,.13-.09.22l-.68,1.07c-.08.14-.29.42-.35.5s-.35.44-.41.55-.34.4-.36.52-.08.16-.11.22-.71.63-.8.73a2.43,2.43,0,0,1-.23.24.76.76,0,0,0-.19.12s-2,1.65-2.12,1.74-1.07.84-1.16.89a1.69,1.69,0,0,1-.27.22l-.57.35-1.07.53L35,56a2.94,2.94,0,0,1-.52.14l-.26,0a1.56,1.56,0,0,0-.38.13c-.11,0-1.21.27-1.45.29s-1.06.15-1.21.16-3.83.08-4,.07-.75,0-.83-.05-.15-.07-.2-.08l-1.39-.05-1.14-.16a5.77,5.77,0,0,0-.6-.12,4.4,4.4,0,0,0-.67-.14,5.1,5.1,0,0,1-.65-.09c-.08,0-.09-.08-.16-.09l-.38-.1c-.1,0-.68-.28-.8-.34a6.44,6.44,0,0,0-.63-.33,1.75,1.75,0,0,1-.34-.15,5.29,5.29,0,0,0-.68-.32,1.84,1.84,0,0,1-.28-.15,3.1,3.1,0,0,0-.45-.21,1.63,1.63,0,0,1-.36-.21s-.05-.11-.09-.12l-.19-.06a.54.54,0,0,0-.19-.17.49.49,0,0,1-.22-.15s-1-.79-1.24-1-1.18-1-1.32-1.22-.79-1-.87-1.14a.71.71,0,0,1-.11-.27.3.3,0,0,0-.12-.19c-.06-.06-.48-.81-.52-.85s0-.21-.07-.23a2.32,2.32,0,0,1-.18-.21.76.76,0,0,1-.11-.24c0-.07-.09-.09-.09-.19a.3.3,0,0,0-.13-.27.46.46,0,0,1-.08-.16s-.06-.1-.1-.13-.14-.17-.14-.24a1.1,1.1,0,0,0-.11-.32,1.91,1.91,0,0,0-.2-.33.36.36,0,0,1-.14-.23,1.56,1.56,0,0,0,0-.31c0-.06-.1-.2-.11-.26s-.44-1-.52-1.31-.56-1.9-.59-2.08-.25-1.3-.25-1.37-.05-.3,0-.36a2,2,0,0,0,0-.48,1.28,1.28,0,0,1-.07-.3,2.07,2.07,0,0,0-.08-.37,1.71,1.71,0,0,1-.09-.27c0-.05-.05-.46-.05-.46s.07,0,.07-.06a.43.43,0,0,0-.07-.07s0-.16,0-.23-.08-.68-.09-.8,0-1.26,0-1.31,0-.07,0-.1,0-.19,0-.27a1.47,1.47,0,0,1-.08-.35c0-.08,0-.47,0-.53s0-1.54,0-1.73.08-.93.08-1a.14.14,0,0,1,0-.1s0,0,0-.06,0-.68.05-.83.19-1,.21-1.18a2.29,2.29,0,0,1,.11-.53c.05-.08.1,0,.1-.29,0,0,.11-.1.09-.2a.28.28,0,0,1,0-.2.31.31,0,0,0,.08-.13c0-.1,0-.38,0-.45s.5-1.74.59-2,.42-1,.49-1.18a3.27,3.27,0,0,1,.1-.39l.14-.12c.07,0,0-.13,0-.17s.08-.2.15-.26,0-.08,0-.12a1.11,1.11,0,0,1,.1-.28s.07,0,.09-.14a8,8,0,0,1,.37-1,9.55,9.55,0,0,1,.51-1,5.55,5.55,0,0,0,.35-.58c.08-.11.32-.55.41-.67A6.06,6.06,0,0,1,14,20c.15-.13.39-.43.48-.51s.28-.23.35-.28a2.38,2.38,0,0,1,.46-.36,1.8,1.8,0,0,0,.42-.41,1.79,1.79,0,0,1,.31-.29c.08,0,.27,0,.22-.14a.06.06,0,0,1,0-.08c.06,0,.22-.2.29-.2a.24.24,0,0,0,.18-.06c0-.06-.15-.13,0-.18a1.41,1.41,0,0,0,.42-.24s0-.16,0-.17a1.7,1.7,0,0,1,.28,0c.1,0,.17,0,.19,0s-.1-.21,0-.19.21,0,.3-.2.12-.06.17-.12.09-.19.19-.24a.74.74,0,0,1,.26-.1c.1,0,.17,0,.22-.18a.34.34,0,0,0,.11,0s.06,0,.09-.13a.35.35,0,0,1,.2-.21c.09-.05.93-.69,1.08-.79s.6-.47.67-.48a.86.86,0,0,1,.15-.05c.06,0,.13-.17.19-.17a.39.39,0,0,0,.14,0s0-.08.1-.09.12,0,.14,0,0-.16.09-.2a1.7,1.7,0,0,1,.27-.19c.07,0,.1,0,.11,0s0-.16,0-.2a1.79,1.79,0,0,1,.28-.26.23.23,0,0,0,.1-.13s0-.13,0-.18a1.13,1.13,0,0,0,.16-.45,1.43,1.43,0,0,0-.09-.61.82.82,0,0,0-.46-.36,2.72,2.72,0,0,1-.41-.08s-.05-.05-.13,0a1,1,0,0,0-.18.05l-.47.12a3,3,0,0,0-.36.09c-.06,0-.1,0-.17.05a.8.8,0,0,1-.18.14,1.7,1.7,0,0,1-.27,0,.38.38,0,0,0-.18.08.28.28,0,0,1-.16.07c-.05,0-.35,0-.44,0s-.2.09-.29.1l-.31.06c-.07,0-.23.1-.32.11a.75.75,0,0,1-.45-.07c-.26-.11-.37-.17-.39-.22a3.31,3.31,0,0,1-.06-.48c0-.09,0-.07,0-.1a.11.11,0,0,1,0-.14,3.28,3.28,0,0,0,.21-.33,2,2,0,0,1,.25-.35c.06-.09.06-.19.21-.3s.08-.21.08-.21a.42.42,0,0,1,.08-.13c0-.06.44-.68.58-.85s.42-.59.49-.66,0-.14.07-.2l.17-.22s0-.12.06-.19,0-.06.17-.17A2.08,2.08,0,0,0,20.27,7c.08-.14.23-.39.3-.53a.55.55,0,0,0,.1-.33c0-.12,0-.12.06-.18s0-.15,0-.22,0-.21-.11-.28a.93.93,0,0,0-.4-.26,2,2,0,0,0-.65-.07.49.49,0,0,0-.34.15l-.43.3c-.06,0-.55.51-.63.56a1.75,1.75,0,0,0-.18.15s0,.09-.06.12-.56.45-.69.56a6.74,6.74,0,0,1-.53.43c-.08,0-.11,0-.2.11a2,2,0,0,0-.25.31.41.41,0,0,1-.17,0c-.06,0-.09-.07-.09,0s-.18.22-.21.25-.71.5-.76.54a.58.58,0,0,1-.21.08,1.58,1.58,0,0,1-.39,0s-.12-.23-.14-.09,0,0,0,0a.34.34,0,0,1-.2-.06.93.93,0,0,1-.15-.26.84.84,0,0,1,0-.44c.06-.14.06-.22.11-.33s.2-.32.29-.47.2-.37.23-.41,0-.12.07-.17.09-.09.17-.19.29-.45.34-.55.1-.29.19-.33.08-.08.11-.16.26-.41.33-.51a3.78,3.78,0,0,0,.17-.35A3.72,3.72,0,0,1,16.18,4c.1-.14.33-.51.4-.57a.48.48,0,0,0,.13-.2s0-.2,0-.22.07-.1.08-.18,0-.27,0-.32A.4.4,0,0,0,17,2.32a.9.9,0,0,0,0-.36,2.08,2.08,0,0,0-.26-.42,1.09,1.09,0,0,0-.54-.34,3.48,3.48,0,0,1-.43-.08.39.39,0,0,0-.24,0,.5.5,0,0,1-.22.11.62.62,0,0,0-.22.1c-.06,0-.5.51-.55.58a2.73,2.73,0,0,0-.23.3,9.2,9.2,0,0,1-.86,1,.58.58,0,0,0-.15.24c-.05.14,0,.1-.07.15s-.15,0-.22.18a3.73,3.73,0,0,1-.29.44s-.46.45-.52.53a.62.62,0,0,0-.09.19c-.05.07-.38.37-.44.47s0,.16-.08.21-.56.69-.66.8a1.57,1.57,0,0,1-.47.4A.34.34,0,0,1,10,6.73a.81.81,0,0,1-.22-.5,4.53,4.53,0,0,1,.11-.72c0-.21.34-1.09.4-1.23s.52-1.14.6-1.29.16-.29.19-.39a2.13,2.13,0,0,0,.11-.33,2.41,2.41,0,0,1,.19-.37s.09,0,.12-.16a1.46,1.46,0,0,1,.2-.38l.16-.28A.46.46,0,0,0,11.9.77a.23.23,0,0,1,0-.2s0-.18-.14-.32A.67.67,0,0,0,11.12,0a1.27,1.27,0,0,0-.54.1.2.2,0,0,0-.17.14c0,.06-.19.19-.28.27s-.67.61-.75.69-.4.41-.45.46a.86.86,0,0,1-.1.16c0,.05-.62.68-.69.78s-.08.21-.12.27-.43.63-.5.72A2.83,2.83,0,0,0,7.24,4a.27.27,0,0,0,0,.14c0,.07-.05.1-.1.18s-.39.66-.44.73-.06.12-.1.14a.27.27,0,0,0-.09.15c0,.06-.39.62-.45.7a1.46,1.46,0,0,1-.47.38A1.74,1.74,0,0,1,5,6.33a1.73,1.73,0,0,1-.41-.4c-.07-.1-.16-.27-.21-.33s-.05-.1,0-.19a.53.53,0,0,0,0-.28,1.33,1.33,0,0,1,0-.39,8.8,8.8,0,0,1,.08-.89,3.69,3.69,0,0,0,0-.61c0-.06,0-.06.06-.13a1.86,1.86,0,0,0,0-.26c0-.06,0-.09,0-.13s.06-.06.05-.14a1.79,1.79,0,0,0-.12-.24A1.08,1.08,0,0,0,4,2.05,3,3,0,0,0,3.69,1.93Z" style="fill:#0068b6"/><path d="M19.19,23.75l-1,.47c-.06,0-.15,0-.22.08l-.72.47c-.13.08-.53.37-.63.46a.72.72,0,0,0-.2.24c0,.05-.05.07-.13.13a.94.94,0,0,0-.21.15,7.09,7.09,0,0,0-.59.74,2.11,2.11,0,0,0-.17.36s0,.15,0,.2a1,1,0,0,0-.18.38,1.93,1.93,0,0,0,0,.42,1.72,1.72,0,0,0,.24.59.34.34,0,0,0,.19.11c.07,0,.09.07.14.12a.46.46,0,0,0,.28.11,1.11,1.11,0,0,0,.33,0l.32-.1a3.54,3.54,0,0,0,.43-.22,1.24,1.24,0,0,0,.27-.21c.11-.09.31-.37.41-.48a6.26,6.26,0,0,1,.5-.53c.13-.09.38-.35.48-.42a5.68,5.68,0,0,1,.5-.29c.08,0,.18-.1.3-.15a3,3,0,0,1,.69-.21c.11,0,.13,0,.29-.07a4.82,4.82,0,0,1,.7-.08c.2,0,.47-.07.67-.06a1.78,1.78,0,0,1,.5.11c.12,0,.18.11.26.13s.25.06.37.11a3.09,3.09,0,0,1,.49.24c.17.11.52.27.63.35a.9.9,0,0,0,.3.17,2.84,2.84,0,0,0,.65,0,.85.85,0,0,0,.62-.4s.1,0,0-.59,0-.46-.1-.64-.14-.21-.21-.29a3,3,0,0,1-.45-.41.63.63,0,0,0-.17-.19c-.09-.06-.23-.21-.29-.21a.23.23,0,0,1-.12,0s0-.09-.12-.13L24,24C24,24,24,24,23.87,24a.42.42,0,0,1-.22,0c-.08,0-.26-.18-.32-.18a.42.42,0,0,1-.17,0,.38.38,0,0,0-.15-.12c-.06,0-.5,0-.61-.06s-.25-.07-.37-.07a3.75,3.75,0,0,0-.67,0l-.28,0a3.55,3.55,0,0,0-.78,0,.8.8,0,0,1-.27.12c-.08,0-.44,0-.56.05Z" style="fill:#0068b6"/><path d="M20.89,28.67a.59.59,0,0,0-.37,0,1.81,1.81,0,0,1-.31.09c-.08,0-.1.09-.16.12S20,29,19.9,29a.31.31,0,0,0-.21.07,1.6,1.6,0,0,0-.18.25c0,.07-.15.33-.22.5a2,2,0,0,0-.1.34c0,.09,0,.31,0,.43a1.29,1.29,0,0,0,.09.57,1.21,1.21,0,0,0,.33.35c.14.11.32.25.4.3l.15.07a.54.54,0,0,0,.22,0,.23.23,0,0,1,.21.05.29.29,0,0,0,.22.06,2,2,0,0,0,.32-.11l.24,0c.09,0,.13,0,.17,0a1,1,0,0,1,.22-.15c.07,0,.16-.05.18-.12l.15-.25s.06-.14.12-.18a1.35,1.35,0,0,0,.14-.22.53.53,0,0,0,0-.16s0-.2,0-.31,0-.24,0-.31a2.52,2.52,0,0,0-.12-.29,1.19,1.19,0,0,1-.12-.22.8.8,0,0,1-.05-.21.31.31,0,0,0-.11-.25A1.49,1.49,0,0,0,21.6,29l-.31-.12a.89.89,0,0,0-.22-.1H21A.16.16,0,0,0,20.89,28.67Z" style="fill:#0068b6"/><path d="M42,23.23s-.35,0-.49,0a9.05,9.05,0,0,0-1.05,0,.61.61,0,0,1-.26,0,.32.32,0,0,0-.26,0,3,3,0,0,1-.55.05,1.41,1.41,0,0,1-.39,0,.38.38,0,0,0-.25,0c-.13.05-.83.18-1,.22s-.15,0-.29.06a1.81,1.81,0,0,0-.32.08c-.07,0-.89.3-1,.36s-.18,0-.26.11a1.39,1.39,0,0,1-.25.17l-.36.13c-.11,0-.09,0-.21.07a2,2,0,0,0-.33.23l-.13.15s-.47.26-.61.36l-.49.35c-.09.06-.52.45-.67.57s-.42.37-.5.46-.22.27-.26.3-.13,0-.12.07.07.11,0,.11a.17.17,0,0,0-.15.07,1.75,1.75,0,0,0-.16.2c0,.05-.2.27-.24.35s-.08.14-.12.14-.09,0-.09.09a.25.25,0,0,1-.07.17s-.17.24-.22.28a1.6,1.6,0,0,0-.16.19,1.61,1.61,0,0,1-.09.24c-.06.11-.47.75-.52.86s-.15.21-.15.25,0,.16-.06.19a.29.29,0,0,0-.17.15,1.8,1.8,0,0,1-.05.19c0,.08-.09.08-.11.12a.61.61,0,0,0-.1.2.92.92,0,0,1-.18.34,1.72,1.72,0,0,1-.13.18.48.48,0,0,1,0,.17c0,.07-.16.1-.16.17s0,.14,0,.19-.11.13-.16.21a.74.74,0,0,0-.06.37.3.3,0,0,1-.09.24,1.28,1.28,0,0,0-.14.34,11.78,11.78,0,0,0-.32,1.14,3,3,0,0,1-.1.41c-.06.08-.08.09-.1.16A1.52,1.52,0,0,0,28,35a.91.91,0,0,1,0,.16,1.71,1.71,0,0,1-.09.22.8.8,0,0,0,0,.3.54.54,0,0,1,0,.3,2.13,2.13,0,0,0-.09.27.89.89,0,0,1,0,.25c0,.15-.08.43-.09.54s-.09.84-.08,1,.08.75.1,1a1.4,1.4,0,0,1,0,.27c0,.06.08.12.06.17s-.15.14,0,.16a.51.51,0,0,1,.11.14.87.87,0,0,0,.17.16l.32.22a.41.41,0,0,0,.23.09c.1,0,.14,0,.23,0s.08,0,.21,0a.9.9,0,0,0,.39-.23,2,2,0,0,0,.23-.36c.07-.12.17-.33.22-.44a2.09,2.09,0,0,1,.15-.3.82.82,0,0,0,.13-.33c0-.11.16-.65.21-.86s.1-.55.11-.64.07-.33.08-.39a2.35,2.35,0,0,0,.08-.29c.05-.18.06-.48.1-.61s.07-.15.1-.3a2.76,2.76,0,0,1,0-.44c0-.11.25-.63.29-.78s.15-.45.18-.61a6,6,0,0,1,.27-.89.68.68,0,0,0,.11-.28,1.27,1.27,0,0,1,.12-.33l.17-.3c0-.07,0-.23.12-.29s.11-.14.15-.23a3.59,3.59,0,0,0,.21-.35c.05-.12.18-.42.23-.5a1.11,1.11,0,0,0,.12-.18A.3.3,0,0,1,33,30a1.66,1.66,0,0,0,.12-.2c.06,0,.1-.14.15-.2s.09-.17.13-.2.06-.08.08-.08.13-.07.12-.15.07-.17.11-.21a2.26,2.26,0,0,1,.22-.33,1.5,1.5,0,0,1,.28-.31c.06,0,.09-.11.14-.12s.1,0,.14,0a.23.23,0,0,1,.09-.12c.08-.07.22-.23.29-.3s.19-.26.25-.26,0,0,.14,0,.14-.07.21-.09a1.75,1.75,0,0,0,.25-.16c.08-.05.74-.51.89-.6a7.49,7.49,0,0,1,.69-.35,2.08,2.08,0,0,1,.35-.12c.1,0,.08-.06.15-.06a.4.4,0,0,0,.21,0s.07-.1.16-.13.55-.15.75-.19a10.47,10.47,0,0,1,1-.21c.2,0,.71,0,.79,0s.06,0,.11,0,.6,0,.77,0l.81,0a.36.36,0,0,1,.19,0s.06,0,.2,0a6.49,6.49,0,0,0,.72,0,1.41,1.41,0,0,0,.62-.24.81.81,0,0,0,.19-.35c0-.05,0-.08,0-.13a.5.5,0,0,0,0-.13s0-.31,0-.35-.11-.13-.17-.22S44,24,44,23.91s-.22-.21-.28-.25-.18-.05-.21-.07a.36.36,0,0,1-.16-.14.25.25,0,0,0-.15-.05,3.08,3.08,0,0,1-.38,0,1.85,1.85,0,0,1-.24-.11s-.15-.05-.19,0,0,.05-.11.06-.09,0-.14,0A.38.38,0,0,0,42,23.23Z" style="fill:#0068b6"/><path d="M37.94,28.93a.93.93,0,0,0-.15.2c0,.09-.11.17-.13.2a.72.72,0,0,0-.14.24c0,.1-.1.27-.11.32l-.15.23a.73.73,0,0,0-.06.28,1.34,1.34,0,0,0,.1.43,1.26,1.26,0,0,0,.16.33c.06.07,0,.09.08.14a1.52,1.52,0,0,1,.17.18c0,.07.1.17.13.22s0,0,.1.07l.18,0a.82.82,0,0,0,.19.09,1.11,1.11,0,0,0,.26.07.8.8,0,0,1,.15,0A1.66,1.66,0,0,0,39,32a1,1,0,0,0,.38-.1,2.89,2.89,0,0,0,.27-.14.85.85,0,0,0,.23-.12c.07-.05.11-.13.17-.16s.13-.05.18-.1a.5.5,0,0,0,.1-.16s0-.22,0-.26,0-.11.09-.18.07-.2.08-.21,0-.08.05-.09.11-.08,0-.14,0-.15,0-.17a.28.28,0,0,0,0-.21,2,2,0,0,0-.08-.2.63.63,0,0,1-.12-.18.67.67,0,0,0-.1-.19,4.28,4.28,0,0,0-.37-.36.58.58,0,0,0-.13-.14l-.19,0a.52.52,0,0,0-.13-.06h-.18c-.08,0-.16-.07-.25-.1s-.17-.08-.25-.08a.52.52,0,0,0-.21,0,1.44,1.44,0,0,0-.24.05l-.17.13C38.13,28.89,38.07,28.85,37.94,28.93Z" style="fill:#0068b6"/><path d="M23.34,45.2a2.29,2.29,0,0,0-.53,0c-.11,0-.1.09-.15.1a.83.83,0,0,0-.3,0c-.06,0-.29.18-.37.23a.51.51,0,0,0-.15.14,1.45,1.45,0,0,0-.1.59c0,.23.08.44.06.51a.12.12,0,0,0,.06.16c.05.06.07.14.15.16s.11,0,.18,0a.31.31,0,0,1,.13.13,4.41,4.41,0,0,0,.54.4c.18.09.49.25.73.34a5.44,5.44,0,0,0,.59.22c.1,0,.08.08.16.08a.92.92,0,0,1,.28,0,.91.91,0,0,0,.27.15c.07,0,.12,0,.19,0s.05.12.15.13.37,0,.46,0l.45,0c.12,0,.12.05.18.07s1.36,0,1.57,0a3,3,0,0,0,.45,0,2.75,2.75,0,0,1,.27-.07c.08,0,.18,0,.3,0s.14,0,.21-.05a.27.27,0,0,1,.19,0,.48.48,0,0,1,.18,0c.07,0,.21,0,.28,0l1-.14c.16,0,.32,0,.37-.05a.25.25,0,0,1,.2-.12.26.26,0,0,0,.19-.09,2.75,2.75,0,0,0,.29-.09c.13,0,.47-.19.73-.29s.54-.25.76-.36.24-.16.33-.18a.61.61,0,0,1,.18-.07.92.92,0,0,0,.33-.17,2.1,2.1,0,0,0,.34-.33,1.29,1.29,0,0,1,.29-.37c.05,0,.12-.07.15-.15s0-.18,0-.21.07-.09.08-.23a.94.94,0,0,0,0-.42.78.78,0,0,0-.15-.29.76.76,0,0,0-.21-.15s-.08-.05-.12,0-.09.07-.12,0a.12.12,0,0,1,0-.09.14.14,0,0,0-.15-.09H34a.49.49,0,0,0-.15,0,1.09,1.09,0,0,0-.24,0c-.08,0-.41,0-.5,0a2.27,2.27,0,0,0-.29.08c-.13,0-.51.19-.69.28s-.44.19-.62.28-.58.27-.72.35l-.32.15L30.1,46l-.65.14a7.34,7.34,0,0,1-.82.09H27.4a4.18,4.18,0,0,1-.77-.09c-.16,0-.68-.11-.88-.16s-.73-.19-1-.27-.59-.16-.79-.24Z" style="fill:#0068b6"/><rect x="77.6" y="13.23" width="15.13" height="3.78" rx="0.85" style="fill:#0068b6"/><path d="M99.45,0H70.89A.85.85,0,0,0,70,.85V29.4a.86.86,0,0,0,.85.86H99.45a.86.86,0,0,0,.84-.86V.85A.85.85,0,0,0,99.45,0ZM96.51,26.05a.42.42,0,0,1-.42.42H74.25a.42.42,0,0,1-.43-.42V4.21a.43.43,0,0,1,.43-.43H96.09a.42.42,0,0,1,.42.43Z" style="fill:#0068b6"/><path d="M130.55,59.66a.85.85,0,0,1-.85.85h-2.09a.85.85,0,0,1-.84-.85V49.59a.44.44,0,0,0-.43-.43H116.27a.85.85,0,0,1-.85-.84V46.23a.85.85,0,0,1,.85-.85H129.7a.85.85,0,0,1,.85.85Z" style="fill:#0068b6"/><path d="M120.46,58a2.52,2.52,0,1,1-2.52-2.52A2.52,2.52,0,0,1,120.46,58Z" style="fill:#0068b6"/><path d="M137.26,37.82H108.71a.85.85,0,0,0-.85.85V67.23a.85.85,0,0,0,.85.84h28.55a.85.85,0,0,0,.85-.84V38.67A.85.85,0,0,0,137.26,37.82Zm-2.93,26.05a.42.42,0,0,1-.43.42H112.06a.42.42,0,0,1-.42-.42V42a.42.42,0,0,1,.42-.42H133.9a.42.42,0,0,1,.43.42Z" style="fill:#0068b6"/><path d="M85.16,55.88a.84.84,0,0,1-.84.85H82.24a.85.85,0,0,1-.85-.85V42A.43.43,0,0,0,81,41.6H70.89a.85.85,0,0,1-.85-.85V38.67a.85.85,0,0,1,.85-.85H84.32a.84.84,0,0,1,.84.85Z" style="fill:#0068b6"/><path d="M100.29,38.67a.85.85,0,0,0-.84-.85H97.37a.85.85,0,0,0-.86.85v2.51a.42.42,0,0,1-.42.42H89.8a.85.85,0,0,0-.85.85v2.08a.85.85,0,0,0,.85.85h9.65a.85.85,0,0,0,.84-.85Z" style="fill:#0068b6"/><path d="M75,68.07a.87.87,0,0,0,.6-.24L82.46,61a.29.29,0,0,0,.09-.21.28.28,0,0,0-.29-.28h-8a.42.42,0,0,1-.43-.42V57.15a.42.42,0,0,1,.43-.42h2.5a.85.85,0,0,0,.85-.85V53.8a.85.85,0,0,0-.85-.85h-2.5a.43.43,0,0,1-.43-.43V49.59a.43.43,0,0,1,.43-.43h2.5a.85.85,0,0,0,.85-.84V46.23a.85.85,0,0,0-.85-.85H70.89a.85.85,0,0,0-.85.85V63.44a.85.85,0,0,0,.85.85h2.25a.29.29,0,0,1,.28.29.36.36,0,0,1-.08.2l-2.81,2.81a.28.28,0,0,0-.08.2.27.27,0,0,0,.28.28Z" style="fill:#0068b6"/><path d="M97.37,68.07a.85.85,0,0,1-.86-.84V63.35a.81.81,0,0,1,.26-.6l3-3a.25.25,0,0,1,.2-.09.28.28,0,0,1,.28.29v7.33a.85.85,0,0,1-.84.84Z" style="fill:#0068b6"/><path d="M100,54.11a.81.81,0,0,0,.25-.6V50a.85.85,0,0,0-.84-.85H97.37a.86.86,0,0,0-.86.85v1.93a.85.85,0,0,1-.25.6l-15,15.05a.28.28,0,0,0-.08.2.27.27,0,0,0,.28.28h4.31a.84.84,0,0,0,.6-.24Z" style="fill:#0068b6"/><path d="M130.55,23.54a.85.85,0,0,0-.85-.85h-4.4a.43.43,0,0,1-.43-.43V8a.43.43,0,0,1,.43-.42h12a.84.84,0,0,0,.85-.85V4.63a.85.85,0,0,0-.85-.85h-12a.43.43,0,0,1-.43-.42V.85A.85.85,0,0,0,124,0h-2.08a.84.84,0,0,0-.84.85V3.36a.43.43,0,0,1-.43.42h-12a.85.85,0,0,0-.85.85V6.71a.84.84,0,0,0,.85.85h12a.43.43,0,0,1,.43.42V22.26a.45.45,0,0,1-.43.43h-4.4a.85.85,0,0,0-.85.85v2.08a.85.85,0,0,0,.85.85h4.4a.45.45,0,0,1,.43.43v2.5a.85.85,0,0,0,.84.86H124a.86.86,0,0,0,.85-.86V26.9a.43.43,0,0,1,.43-.43h4.4a.85.85,0,0,0,.85-.85Z" style="fill:#0068b6"/><path d="M117.06,17.27a.84.84,0,0,0,.25-.6V12.35a.28.28,0,0,0-.48-.2l-8.72,8.72a.85.85,0,0,0-.25.61v4.31a.28.28,0,0,0,.48.2Z" style="fill:#0068b6"/><path d="M128.91,17.27a.85.85,0,0,1-.26-.6V12.35a.28.28,0,0,1,.48-.2l8.72,8.72a.85.85,0,0,1,.25.61v4.31a.27.27,0,0,1-.28.28.28.28,0,0,1-.2-.08Z" style="fill:#0068b6"/><path d="M65.23,111.43H60.05a5.08,5.08,0,0,1,.24-10.15h4.94a1.33,1.33,0,1,1,0,2.65H60.29a2.43,2.43,0,0,0-.11,4.86h5.05a1.33,1.33,0,1,1,0,2.65Z" style="fill:#0068b6"/><path d="M113.9,91.3l-11.39,12h0a3.76,3.76,0,0,0-.25.31,2.65,2.65,0,1,0,4.34,3,3.74,3.74,0,0,0,.28-.52h0Z" style="fill:#0068b6"/><path d="M137.64,103.64a3.76,3.76,0,0,0-.25-.31h0L126,91.3l7,14.86h0a2.92,2.92,0,0,0,.28.52,2.65,2.65,0,1,0,4.34-3Z" style="fill:#0068b6"/><path d="M11.35,87a3.79,3.79,0,1,1-3.78-3.78A3.79,3.79,0,0,1,11.35,87Z" style="fill:#0068b6"/><path d="M7.57,100.27a3.79,3.79,0,1,1-3.79-3.78A3.79,3.79,0,0,1,7.57,100.27Z" style="fill:#0068b6"/><path d="M22.94,73.76a3.78,3.78,0,0,0-4.61,2.71,3.69,3.69,0,0,0-.12.8h0V92.09l7.17-13h0a4.16,4.16,0,0,0,.28-.75A3.79,3.79,0,0,0,22.94,73.76Z" style="fill:#0068b6"/><path d="M11.42,123.86h0v-18.2l-8.8,15.93a4.91,4.91,0,0,0-.51,1.22,4.73,4.73,0,0,0,9.16,2.36A4.55,4.55,0,0,0,11.42,123.86Z" style="fill:#0068b6"/><path d="M49.57,87a1.89,1.89,0,0,0-1.89-1.89H27.24a1.9,1.9,0,0,0,0,3.79H47.68A1.9,1.9,0,0,0,49.57,87Z" style="fill:#0068b6"/><path d="M62.77,92.67a1.89,1.89,0,0,0-3.78,0,1.63,1.63,0,0,0,.06.45h0l1.84,7.22,1.84-7.22h0A2.14,2.14,0,0,0,62.77,92.67Z" style="fill:#0068b6"/><path d="M88.53,96.32a3.79,3.79,0,1,1-3.79-3.78A3.79,3.79,0,0,1,88.53,96.32Z" style="fill:#e50012"/><path d="M47.68,117.25l-.25,0h-2a.42.42,0,0,1-.42-.43V109.4a.42.42,0,0,1,.42-.42h2.23a1.9,1.9,0,0,0,0-3.79H45.45a.42.42,0,0,1-.42-.42V94.94a2.27,2.27,0,0,0-2.27-2.27H32.16a1.89,1.89,0,1,0,0,3.78h7.9a.43.43,0,0,1,.43.43v7.89a.42.42,0,0,1-.43.42H35.23a.42.42,0,0,1-.42-.42v-2.22h0a2.27,2.27,0,0,0-4.54,0v2.23a.42.42,0,0,1-.43.42H25a.42.42,0,0,1-.42-.42h0V95.59a2.27,2.27,0,1,0-4.54,0h0v9.17a.43.43,0,0,1-.43.42H17.4a1.9,1.9,0,0,0,0,3.79h2.23a.43.43,0,0,1,.43.42v9.38h0a2.27,2.27,0,0,0,2.26,2.27H40.06a.43.43,0,0,1,.43.43v4.87h0a2.27,2.27,0,0,0,4.54,0h0v-4.87a.42.42,0,0,1,.42-.43h2.23v0a1.89,1.89,0,0,0,0-3.78Zm-12.87-5.62h0V109.4a.42.42,0,0,1,.42-.42h4.83a.42.42,0,0,1,.43.42v7.44a.43.43,0,0,1-.43.43H25a.42.42,0,0,1-.42-.43h0V109.4h0A.42.42,0,0,1,25,109h4.82a.42.42,0,0,1,.43.42v2.22h0a2.27,2.27,0,0,0,4.54,0Z" style="fill:#0068b6"/><path d="M97.23,83.61v0A2.27,2.27,0,0,0,95,81.32H82.85A1.89,1.89,0,0,0,81,83.21a1.79,1.79,0,0,0,1.76,1.89h9.56a.43.43,0,0,1,.43.43v23.79h0a2.27,2.27,0,0,0,4.54,0h0V83.61Z" style="fill:#0068b6"/><path d="M86.63,107.81H77.22a.43.43,0,0,1-.42-.43V83.59a2.28,2.28,0,0,0-4.55,0v25.73h0a2.27,2.27,0,0,0,2.27,2.27H86.63a1.89,1.89,0,1,0,0-3.78Z" style="fill:#0068b6"/><path d="M134,85H122.59a.41.41,0,0,1-.37-.42V81.82h0a2.27,2.27,0,0,0-4.54,0h0V84.6a.41.41,0,0,1-.37.42H106a1.9,1.9,0,0,0,0,3.79h11.3a.42.42,0,0,1,.43.42V103.6a.43.43,0,0,1-.4.42h-4.52a1.9,1.9,0,0,0,0,3.79h4.52a.42.42,0,0,1,.4.42v3h0a2.27,2.27,0,0,0,4.54,0h0v-3a.42.42,0,0,1,.4-.42h4.52a1.9,1.9,0,0,0,0-3.79h-4.52a.43.43,0,0,1-.4-.42V89.23a.42.42,0,0,1,.43-.42H134A1.9,1.9,0,0,0,134,85Z" style="fill:#0068b6"/><path d="M100.57,118.38h0a1.14,1.14,0,1,0-2.27,0v6.82h0a1.14,1.14,0,0,1-1.14,1.14,1.13,1.13,0,0,1-1-.56h0a1.16,1.16,0,0,0-1-.58,1.14,1.14,0,0,0-1.14,1.14,1,1,0,0,0,.15.56h0a3.41,3.41,0,0,0,6.37-1.71h0Z" style="fill:#0068b6"/><path d="M85.16,116.79a6.14,6.14,0,1,0,6.14,6.14A6.14,6.14,0,0,0,85.16,116.79Zm0,10A3.87,3.87,0,1,1,89,122.93,3.87,3.87,0,0,1,85.16,126.8Z" style="fill:#0068b6"/><path d="M127,125.2a1.16,1.16,0,0,0-.88.42,3.82,3.82,0,0,1-2.77,1.18,3.87,3.87,0,1,1,2.77-6.57h0a1.13,1.13,0,0,0,.89.42,1.12,1.12,0,0,0,1.13-1.13,1.15,1.15,0,0,0-.32-.8h0a6.14,6.14,0,1,0,.07,8.35h0a1.16,1.16,0,0,0,.26-.73A1.14,1.14,0,0,0,127,125.2Z" style="fill:#0068b6"/><path d="M59.75,117.24H56.34a1.14,1.14,0,0,0-1.14,1.14v9.1a1.14,1.14,0,1,0,2.28,0V120a.46.46,0,0,1,.46-.45h1.81a1.14,1.14,0,1,1,0,2.27,1.14,1.14,0,0,0,0,2.28,3.42,3.42,0,1,0,0-6.83Z" style="fill:#0068b6"/><path d="M137,117.24h-4.55a1.14,1.14,0,1,0,0,2.28h.67a.47.47,0,0,1,.47.46h0v7.49a1.14,1.14,0,1,0,2.27,0h0V120h0a.47.47,0,0,1,.47-.47H137a1.14,1.14,0,1,0,0-2.28Z" style="fill:#0068b6"/><path d="M108.75,124.07h3a1.14,1.14,0,1,0,0-2.27h-2.95a.47.47,0,0,1-.46-.46h0V120a.46.46,0,0,1,.47-.46h2.94a1.14,1.14,0,1,0,0-2.28h-4.54a1.14,1.14,0,0,0-1.15,1.14v9.1h0a1.14,1.14,0,0,0,1.15,1.14h4.54a1.14,1.14,0,0,0,0-2.28h-2.94a.47.47,0,0,1-.47-.45v-1.37A.46.46,0,0,1,108.75,124.07Z" style="fill:#0068b6"/><path d="M74.42,127.06v0a0,0,0,0,1,0,0l-1.18-2.86h0a.47.47,0,0,1,.15-.56,3.41,3.41,0,0,0-1.71-6.36H68.25a1.14,1.14,0,0,0-1.14,1.14v9.1a1.14,1.14,0,1,0,2.27,0V120a.46.46,0,0,1,.46-.45h1.82a1.14,1.14,0,0,1,0,2.27h-.19a1.15,1.15,0,0,0-1,1.59h0l1.86,4.51,0,.06h0a1.13,1.13,0,0,0,1,.66,1.14,1.14,0,0,0,1.14-1.14,1.16,1.16,0,0,0-.08-.42Z" style="fill:#0068b6"/><path d="M159.06,126.69a32.14,32.14,0,0,0,.91-4.24.34.34,0,0,0-.34-.39h-.33l0,0a28,28,0,0,1-3.19,6.37.34.34,0,0,1-.55,0l-1.43-1.93a.33.33,0,0,1,0-.4,27.34,27.34,0,0,0,2.93-5.43.33.33,0,0,1,.53-.12l1,.86a.34.34,0,0,0,.56-.26V120a.34.34,0,0,1,.34-.34h.5a.35.35,0,0,0,.34-.31c.09-.92.14-1.59.18-2.21l-.42.44-1.72-1.8a.34.34,0,0,1,0-.49,10.78,10.78,0,0,0,2.87-4.3.32.32,0,0,1,.34-.21l2.13.2a.34.34,0,0,1,.29.44,2.09,2.09,0,0,1-.08.23c-.08.22-.15.46.09.46h8a.34.34,0,0,1,.34.34v1.86a.34.34,0,0,1-.34.33H162.7a.33.33,0,0,0-.28.16l-.28.42a.3.3,0,0,0,.24.47h8.81a.43.43,0,0,1,.44.44c0,.83,0,2.41,0,3.19,0,.19.05.34.24.34h.2a.34.34,0,0,1,.34.34v1.74a.34.34,0,0,1-.34.34h-.27c-.18,0-.23.14-.24.32s0,.59-.06.94c0,.19,0,.36.22.36h.12a.34.34,0,0,1,.34.34v1.76a.34.34,0,0,1-.34.34h-.37c-.17,0-.22.13-.24.29-.13,1-.47,2.44-2.18,2.44h-2.68a.33.33,0,0,1-.33-.26l-.29-1.31a.33.33,0,0,1,.33-.41h1.71c.67,0,.75-.42.81-.75h-6.19a.34.34,0,0,0-.33.27c-.09.45-.17.74-.24,1a.33.33,0,0,1-.4.23l-2.1-.48A.34.34,0,0,1,159.06,126.69Zm-3.22-10.9a13.26,13.26,0,0,1,2.8,1.72.35.35,0,0,1,.06.46l-1.2,1.73a.33.33,0,0,1-.49.07,13.22,13.22,0,0,0-2.58-1.75.33.33,0,0,1-.12-.49l1.11-1.62A.33.33,0,0,1,155.84,115.79Zm.55-4.86a14.51,14.51,0,0,1,2.89,1.63.34.34,0,0,1,.06.46l-1.23,1.73a.33.33,0,0,1-.48.06,17,17,0,0,0-2.64-1.65.35.35,0,0,1-.13-.5l1.12-1.61A.34.34,0,0,1,156.39,110.93Zm7.88,12.52c.08-.52.11-.83.14-1.09a.27.27,0,0,0-.27-.3H163a.27.27,0,0,0-.27.24l-.14,1.07a.27.27,0,0,0,.27.31H164A.27.27,0,0,0,164.27,123.45Zm-1.21-5.1c0,.45,0,.73-.06,1a.28.28,0,0,0,.27.29h1.15a.27.27,0,0,0,.27-.26c0-.48.05-.76.06-1a.28.28,0,0,0-.28-.28h-1.14A.28.28,0,0,0,163.06,118.35Zm3.95,4c0,.36-.07.74-.11,1.08a.28.28,0,0,0,.27.3h1.35a.27.27,0,0,0,.27-.25c0-.57.05-.88.06-1.09a.27.27,0,0,0-.27-.28h-1.29A.29.29,0,0,0,167,122.3Zm.28-4c0,.3,0,.71,0,1a.27.27,0,0,0,.27.29h1.16a.27.27,0,0,0,.27-.27c0-.4,0-.7,0-1a.29.29,0,0,0-.28-.28h-1.12A.28.28,0,0,0,167.29,118.35Z" style="fill:#0068b6"/><path d="M181.41,126.48a.64.64,0,0,1,.51-.85c1.73-.23,4.53-1,4.53-4.82,0-2.12-1-3.5-2.81-3.88a.44.44,0,0,0-.53.4c-.15,2-1,9.78-5.29,9.78-2.79,0-3.69-3.11-3.69-5.21,0-5.15,3.93-7.84,8.13-7.84,4.8,0,7.28,3,7.28,6.93a7.5,7.5,0,0,1-2.39,5.7,9,9,0,0,1-4.48,1.76A.63.63,0,0,1,182,128ZM176.94,122c0,.42.1,2,1,2,1.07,0,2-2.69,2.37-6.33a.37.37,0,0,0-.51-.37A5.07,5.07,0,0,0,176.94,122Z" style="fill:#0068b6"/><path d="M199,112.33v-1a.62.62,0,0,1,.62-.62h1.68a.62.62,0,0,1,.62.62v1a.41.41,0,0,0,.4.41h5.41a.61.61,0,0,1,.61.61v1.46a.61.61,0,0,1-.61.61h-5.41a.41.41,0,0,0-.4.41v1.4a.41.41,0,0,0,.4.41h6.51a.61.61,0,0,1,.62.61v1.46a.62.62,0,0,1-.62.62h-4.55a.41.41,0,0,0-.3.68,15.12,15.12,0,0,0,5.15,3.7.62.62,0,0,1,.28.88l-1,1.74a.63.63,0,0,1-.85.22,20.36,20.36,0,0,1-4.9-4.11.4.4,0,0,0-.72.26v4.55a.62.62,0,0,1-.62.62h-1.68a.62.62,0,0,1-.62-.62v-4.56a.41.41,0,0,0-.73-.26,17.14,17.14,0,0,1-4.89,4.12.61.61,0,0,1-.84-.23l-1-1.75a.62.62,0,0,1,.28-.86A16.27,16.27,0,0,0,197,121a.41.41,0,0,0-.31-.68h-4.62a.62.62,0,0,1-.62-.62v-1.46a.61.61,0,0,1,.62-.61h6.47a.41.41,0,0,0,.41-.41v-1.4a.41.41,0,0,0-.41-.41h-5.31a.61.61,0,0,1-.61-.61v-1.46a.61.61,0,0,1,.61-.61h5.31A.41.41,0,0,0,199,112.33Z" style="fill:#0068b6"/><path d="M215.77,115.06h-3a.43.43,0,0,1-.43-.43v-1.81a.43.43,0,0,1,.43-.43h6.12a.26.26,0,0,0,.26-.25v-.92a.42.42,0,0,1,.42-.43h2a.43.43,0,0,1,.43.43v.92a.25.25,0,0,0,.25.25h6.24a.43.43,0,0,1,.43.43v1.81a.43.43,0,0,1-.43.43h-3l1.54.33a.43.43,0,0,1,.33.54,23.19,23.19,0,0,1-.91,2.58.26.26,0,0,0,.24.37h2.53a.42.42,0,0,1,.42.43v1.85a.42.42,0,0,1-.42.42h-4.75a.26.26,0,0,0-.18.45,16.69,16.69,0,0,0,5.2,3.43.42.42,0,0,1,.2.6l-1.16,2a.43.43,0,0,1-.56.17,17.22,17.22,0,0,1-5.47-4.28.27.27,0,0,0-.48.18v4.28a.43.43,0,0,1-.43.43h-2a.42.42,0,0,1-.42-.43v-4.19a.28.28,0,0,0-.49-.19,18.83,18.83,0,0,1-5.37,4.19.41.41,0,0,1-.56-.17l-1.19-2a.43.43,0,0,1,.21-.62A16,16,0,0,0,217,122a.27.27,0,0,0-.19-.45h-4.71a.42.42,0,0,1-.43-.42v-1.85a.43.43,0,0,1,.43-.43h2.53a.27.27,0,0,0,.25-.34A18.21,18.21,0,0,0,214,116a.43.43,0,0,1,.29-.58Zm-.08,3.82h3.13a.35.35,0,0,0,.35-.35v-3.12a.35.35,0,0,0-.35-.35h-1.66a.31.31,0,0,0-.28.43,17.9,17.9,0,0,1,.82,2.5.43.43,0,0,1-.33.52Zm8-1c.31-.78.62-1.78.8-2.37a.32.32,0,0,0-.3-.4h-1.84a.35.35,0,0,0-.34.35v3.12a.35.35,0,0,0,.34.35h3.55l-1.92-.47A.43.43,0,0,1,223.69,117.83Z" style="fill:#0068b6"/><path d="M239.21,113.67c-.05.24-.1.43-.17.66a.19.19,0,0,0,.18.25h5.62a.38.38,0,0,1,.39.39v1.89a.38.38,0,0,1-.39.38h-6.67a.2.2,0,0,0-.18.14,9,9,0,0,1-.5,1.08,4.65,4.65,0,0,1,2.06-.52,2.81,2.81,0,0,1,2.64,1.41,25.53,25.53,0,0,1,3.56-1.1.38.38,0,0,1,.48.31l.39,2.06a.37.37,0,0,1-.3.44c-.73.15-1.83.49-3.34,1a.24.24,0,0,0-.17.25c.05.73.05,1.36.05,1.63v.49a.4.4,0,0,1-.39.38h-2.13a.39.39,0,0,1-.39-.4c0-.18,0-.41,0-.81a.24.24,0,0,0-.35-.22c-.61.32-1.24.77-1.24,1.47,0,1,1.2,1,3,1,1.19,0,2.68,0,3.92-.18a.39.39,0,0,1,.43.39v2.09a.4.4,0,0,1-.38.39l-3.48.06a13.6,13.6,0,0,1-4.72-.6,3,3,0,0,1-2-2.8c0-2.39,2.59-3.76,4.29-4.62a1.4,1.4,0,0,0-.87-.29,4.57,4.57,0,0,0-2.87,1.53,20.65,20.65,0,0,1-2,2.61.39.39,0,0,1-.56,0l-1.54-1.56a.38.38,0,0,1,0-.54,15.4,15.4,0,0,0,3.24-4.8.21.21,0,0,0-.19-.29h-2.16a.38.38,0,0,1-.38-.38V115a.38.38,0,0,1,.38-.39h3.16a.2.2,0,0,0,.18-.15c.08-.37.13-.67.19-1a.39.39,0,0,1,.4-.33l2.4.13A.38.38,0,0,1,239.21,113.67Z" style="fill:#0068b6"/><path d="M297.36,114.53v1.56a.47.47,0,0,1-.19.38c-.87.66-2.55,1.58-3.46,2.25-.09.07,0,.2.06.18a5.32,5.32,0,0,1,1.14-.09c3.83,0,4.68,2.87,4.68,4.71,0,3.42-2.55,5.53-6.69,5.53-3.62,0-4.69-1.91-4.69-3.23,0-1.87,1.84-2.9,3.52-2.9a2.81,2.81,0,0,1,3.11,2.68,3.07,3.07,0,0,1-.09.65,2.49,2.49,0,0,0,1.87-2.39c0-.29-.05-2.55-3.14-2.55a6.75,6.75,0,0,0-4,1.35,29.78,29.78,0,0,0-2.91,2.37.29.29,0,0,1-.45-.07l-1.06-2a.46.46,0,0,1,.11-.58c1.2-1,5.28-4.07,6.61-5.18.14-.11.05-.42-.12-.42l-4.88.11a.44.44,0,0,1-.46-.45v-1.9a.46.46,0,0,1,.44-.45l10.1-.08A.48.48,0,0,1,297.36,114.53Zm-4.68,11.69a1.06,1.06,0,0,0-1.1-1.14c-.6,0-1,.3-1,.78,0,.72.87.8,1.39.8a2.57,2.57,0,0,0,.69-.08A1.42,1.42,0,0,0,292.68,126.22Z" style="fill:#0068b6"/><path d="M306.63,126.32a6.77,6.77,0,0,0,2.82-2.9.16.16,0,0,0-.22-.21c-.66.37-1.18.63-1.62.83a.41.41,0,0,1-.56-.26s-.42-1.62-.47-1.8-.33-.11-.45-.07a.24.24,0,0,0-.14.21v5.07a1.52,1.52,0,0,1-1.54,1.68h-2a.43.43,0,0,1-.42-.37l-.28-2a.42.42,0,0,1,.42-.48h.58c.28,0,.53,0,.53-.54v-2.3A.25.25,0,0,0,303,123l-.81.25a.4.4,0,0,1-.51-.34l-.22-2.17a.4.4,0,0,1,.32-.43c.28-.06.58-.12,1.33-.32a.29.29,0,0,0,.22-.28V116.8a.27.27,0,0,0-.27-.27h-1a.39.39,0,0,1-.39-.4v-1.85a.39.39,0,0,1,.39-.4h1a.27.27,0,0,0,.27-.27v-2.42a.4.4,0,0,1,.4-.4h1.87a.4.4,0,0,1,.4.4v2.42a.27.27,0,0,0,.27.27h.88l1.24-1.17a.41.41,0,0,1,.6.06,9.61,9.61,0,0,1,.94,1.6.1.1,0,0,0,.19-.05v-3.16a.33.33,0,0,1,.32-.32h1.95a.32.32,0,0,1,.32.32v8.21c0,6-2.51,8.18-4.21,9.37a.42.42,0,0,1-.57-.08l-1.4-1.7A.42.42,0,0,1,306.63,126.32ZM309,118a.32.32,0,0,1-.52-.16,14.45,14.45,0,0,0-1.12-2.88v1.11a.43.43,0,0,1-.43.43h-.62a.27.27,0,0,0-.27.27v2a.22.22,0,0,0,.29.21c.27-.08.43-.13.58-.19a.35.35,0,0,1,.46.32l0,1.72c1.48-.63,2-.87,2.48-1.08a.51.51,0,0,0,.28-.45V117.5a.21.21,0,0,0-.35-.16Zm8.74,5.2a14.87,14.87,0,0,0-1.25-2.41.14.14,0,0,0-.25.07v4.36c0,.24,0,.45.25.45h.67c.29,0,.52,0,.56-1.39a.41.41,0,0,1,.54-.38l1.48.46a.4.4,0,0,1,.29.41c-.09,3-.72,3.94-2,3.94h-2.73c-.95,0-1.72-.42-1.72-1.57v-16a.33.33,0,0,1,.33-.32h2a.32.32,0,0,1,.32.32l0,3.87a.15.15,0,0,0,.29.08,18.37,18.37,0,0,0,1-2.26.32.32,0,0,1,.47-.16l1.71,1.12a.33.33,0,0,1,.11.39,16.94,16.94,0,0,1-2.2,3.78l-1.09-.89a.21.21,0,0,0-.35.16v1.64a.18.18,0,0,0,.29.14l.87-.62a.33.33,0,0,1,.45.07,19.08,19.08,0,0,1,2.07,3.39.31.31,0,0,1-.1.38l-1.47,1.14A.39.39,0,0,1,317.69,123.23Z" style="fill:#0068b6"/><path d="M339.8,119.7a18.81,18.81,0,0,1-2.55,4.42c.25.69.4,1.11.69,1.11s.71-.6,1-1.21a.29.29,0,0,1,.52,0l.62,2a.9.9,0,0,1,0,.56c-.54,1.25-1.56,2.28-2.49,2.28-1.39,0-2.15-1.66-2.49-2.4a14.53,14.53,0,0,1-2.57,2,.51.51,0,0,1-.7-.17l-1.35-2.12h-1.63a.28.28,0,0,0-.28.28v2a.41.41,0,0,1-.41.42h-1.92a.41.41,0,0,1-.41-.42v-2a.28.28,0,0,0-.28-.28H322.3a.44.44,0,0,1-.44-.44V124a.44.44,0,0,1,.44-.44h3.23a.32.32,0,0,0,.32-.32v-.34a.31.31,0,0,0-.32-.31h-2.62a.47.47,0,0,1-.46-.46v-7.49a.25.25,0,0,1,.27-.26h.3a15.21,15.21,0,0,0-1.06-2.55.29.29,0,0,1,.18-.42l1.92-.53a.28.28,0,0,1,.33.14,20.46,20.46,0,0,1,1.06,2.34.28.28,0,0,1-.18.37l-2.07.65h5.32A15.79,15.79,0,0,0,330,111a.29.29,0,0,1,.34-.2l2.28.58a.28.28,0,0,1,.19.39c-.41.9-1.37,2.55-1.44,2.66h.4a.24.24,0,0,1,.25.25v7.5a.47.47,0,0,1-.46.46h-2.62a.31.31,0,0,0-.32.31v.34a.32.32,0,0,0,.32.32H332a.45.45,0,0,1,.45.44v1a19.37,19.37,0,0,0,1.79-1.47,37.84,37.84,0,0,1-.67-5.24l-.87,0a.37.37,0,0,1-.39-.37v-2a.36.36,0,0,1,.34-.36l.85-.07c0-.61-.08-3.38-.08-3.93v-.47a.38.38,0,0,1,.37-.37h2a.37.37,0,0,1,.37.38c0,.21,0,.45,0,.63a.13.13,0,0,0,.2.11l1.54-.9a.42.42,0,0,1,.57.12,19.28,19.28,0,0,1,1.49,2.52.43.43,0,0,1-.17.56l-1.78,1,1.54-.11a.44.44,0,0,1,.45.42l0,1.88a.43.43,0,0,1-.39.43l-3.3.24c.08,1.29.15,2,.23,2.61a9,9,0,0,0,1-2.18.38.38,0,0,1,.56-.22l1.6.93A.39.39,0,0,1,339.8,119.7Zm-15-3.28v1.12h1.29v-1.12Zm0,3v1.15h1.29v-1.15Zm3.48-8.49a15.75,15.75,0,0,1,.47,2.5.28.28,0,0,1-.24.31l-1.92.3a.3.3,0,0,1-.34-.26,12.62,12.62,0,0,0-.51-2.5.3.3,0,0,1,.25-.38l2-.17A.29.29,0,0,1,328.28,110.88Zm.16,5.54v1.12h1.24v-1.12Zm0,3v1.15h1.24v-1.15Zm9.35-4.26a13.81,13.81,0,0,0-1.52-2.78.1.1,0,0,0-.18,0c0,1,0,2.35.05,3l1.57-.11A.09.09,0,0,0,337.79,115.11Z" style="fill:#0068b6"/><path d="M280.88,117.92v1.8a.33.33,0,0,1-.16.28,40.26,40.26,0,0,0-3.53,2.47,2.88,2.88,0,0,1,1.11-.26c1.53,0,1.59,1.21,1.59,2v.56c0,.9,0,1.24,1.44,1.24.18,0,1.38,0,2.56-.1a.32.32,0,0,1,.35.31l.07,2.23a.32.32,0,0,1-.31.34c-.55,0-1.28,0-2.16,0-1.9,0-3.52,0-4.19-.92a2.7,2.7,0,0,1-.58-1.68v-.81c0-.44,0-1-.83-1-1.13,0-2,.64-5.34,4.29a.33.33,0,0,1-.48,0l-1.56-1.81a.33.33,0,0,1,0-.46c1.26-1.09,5-4.3,5.82-5l.91-.74a.25.25,0,0,0-.16-.45l-5.52.18a.32.32,0,0,1-.33-.33V118a.32.32,0,0,1,.32-.33l10.62-.06A.32.32,0,0,1,280.88,117.92Zm-1.13-1.12L273,115.7a.33.33,0,0,1-.26-.4l.42-1.93a.32.32,0,0,1,.37-.25l6.69,1.16a.32.32,0,0,1,.26.39l-.4,1.88A.31.31,0,0,1,279.75,116.8Z" style="fill:#0068b6"/><path d="M250.79,119.8a15.38,15.38,0,0,0,2.44-3.64.41.41,0,0,0-.22-.57l-1.63-.65a.42.42,0,0,0-.52.19,11.81,11.81,0,0,1-2,2.85.41.41,0,0,0,0,.58l1.3,1.26A.43.43,0,0,0,250.79,119.8Z" style="fill:#0068b6"/><path d="M262.44,115.71a.47.47,0,0,0-.17.66,16.66,16.66,0,0,0,2.58,3.5.57.57,0,0,0,.81,0l1.17-1.19a.48.48,0,0,0,0-.67,16.46,16.46,0,0,1-2.42-3.07.14.14,0,0,1,.13-.21h1.8a.59.59,0,0,0,.59-.6V112.7a.59.59,0,0,0-.59-.6H259.5a.14.14,0,0,1-.14-.14v-.47a.6.6,0,0,0-.6-.59H257a.59.59,0,0,0-.59.59V112a.15.15,0,0,1-.15.14h-6.86a.6.6,0,0,0-.59.6v1.41a.6.6,0,0,0,.59.6h4.87a.38.38,0,0,1,.37.46,5.22,5.22,0,0,1-2.23,3.32.54.54,0,0,0-.08.82l1.11,1.21a.14.14,0,0,1,0,.21,14.14,14.14,0,0,1-3.81,1.94.61.61,0,0,0-.33.86l.76,1.36a.6.6,0,0,0,.73.28c.57-.22,1.22-.48,2-.88a.38.38,0,0,1,.46.08,10.22,10.22,0,0,0,.86.82.32.32,0,0,1-.14.55,30.33,30.33,0,0,1-4.28.69.6.6,0,0,0-.51.78l.44,1.34a.6.6,0,0,0,.63.42,30.83,30.83,0,0,0,7.35-1.68h.1a33,33,0,0,0,7.74,1.69.59.59,0,0,0,.62-.37l.65-1.57a.6.6,0,0,0-.53-.82,31.5,31.5,0,0,1-4.67-.59.15.15,0,0,1-.05-.27,12.91,12.91,0,0,0,2.54-2.2.59.59,0,0,0,.15-.4v-1.55a.59.59,0,0,0-.6-.59h-5.85c.09-.11.23-.28.34-.44a.23.23,0,0,0-.15-.37l-2.15-.59a.15.15,0,0,1-.07-.23,7.73,7.73,0,0,0,1.66-4,.38.38,0,0,1,.38-.31h1a.37.37,0,0,1,.37.37v1.46c0,.58,0,.63-.51.63h-.45a.55.55,0,0,0-.54.64l.33,1.71a.44.44,0,0,0,.43.37h1.8a1.43,1.43,0,0,0,1.6-1.42v-3.39a.38.38,0,0,1,.38-.37h1.58a.14.14,0,0,1,.07.26Zm-6.4,7.18h3.67a.26.26,0,0,1,.14.48,12.69,12.69,0,0,1-1.77,1,.53.53,0,0,1-.46,0,12.08,12.08,0,0,1-1.72-1A.26.26,0,0,1,256,122.89Z" style="fill:#0068b6"/><rect x="201.27" y="44.13" width="1.62" height="1.62" transform="translate(27.41 156.06) rotate(-45)" style="fill:#009fc9"/><rect x="206.18" y="49.04" width="3.23" height="3.23" transform="translate(25.04 161.77) rotate(-45)" style="fill:#009fc9"/><rect x="211.08" y="53.95" width="4.85" height="4.85" transform="translate(22.67 167.48) rotate(-45)" style="fill:#009fc9"/><rect x="206.18" y="60.48" width="3.23" height="3.23" transform="translate(16.95 165.11) rotate(-45)" style="fill:#009fc9"/><rect x="215.99" y="58.86" width="6.47" height="6.47" transform="translate(20.3 173.2) rotate(-45)" style="fill:#009fc9"/><rect x="211.08" y="65.38" width="4.85" height="4.85" transform="translate(14.59 170.83) rotate(-45)" style="fill:#009fc9"/><rect x="215.99" y="70.29" width="6.47" height="6.47" transform="translate(12.22 176.55) rotate(-45)" style="fill:#009fc9"/><rect x="211.08" y="76.82" width="4.85" height="4.85" transform="translate(6.5 174.18) rotate(-45)" style="fill:#009fc9"/><rect x="206.18" y="83.34" width="3.23" height="3.23" transform="translate(0.78 171.82) rotate(-45)" style="fill:#009fc9"/><rect x="215.99" y="81.73" width="6.47" height="6.47" transform="translate(4.13 179.9) rotate(-45)" style="fill:#009fc9"/><rect x="211.08" y="88.25" width="4.85" height="4.85" transform="translate(-1.58 177.53) rotate(-45)" style="fill:#009fc9"/><rect x="206.18" y="94.78" width="3.23" height="3.23" transform="translate(-7.3 175.17) rotate(-45)" style="fill:#009fc9"/><rect x="201.27" y="101.3" width="1.62" height="1.62" transform="translate(-13.01 172.81) rotate(-45)" style="fill:#009fc9"/><rect x="178.4" y="44.13" width="1.62" height="1.62" transform="translate(20.71 139.89) rotate(-45)" style="fill:#009fc9"/><rect x="183.31" y="49.04" width="3.23" height="3.23" transform="translate(18.34 145.6) rotate(-45)" style="fill:#009fc9"/><rect x="188.22" y="53.95" width="4.85" height="4.85" transform="translate(15.97 151.31) rotate(-45)" style="fill:#009fc9"/><rect x="183.31" y="60.48" width="3.23" height="3.23" transform="translate(10.26 148.94) rotate(-45)" style="fill:#009fc9"/><rect x="193.12" y="58.86" width="6.47" height="6.47" transform="translate(13.61 157.03) rotate(-45)" style="fill:#009fc9"/><rect x="188.22" y="65.38" width="4.85" height="4.85" transform="translate(7.89 154.66) rotate(-45)" style="fill:#009fc9"/><rect x="193.12" y="70.29" width="6.47" height="6.47" transform="translate(5.52 160.38) rotate(-45)" style="fill:#009fc9"/><rect x="188.22" y="76.82" width="4.85" height="4.85" transform="translate(-0.2 158.01) rotate(-45)" style="fill:#009fc9"/><rect x="183.31" y="83.34" width="3.23" height="3.23" transform="translate(-5.91 155.65) rotate(-45)" style="fill:#009fc9"/><polygon points="207.79 67.81 202.08 62.09 196.36 67.81 202.08 73.53 196.36 79.24 202.08 84.96 207.79 79.24 213.51 73.53 207.79 67.81" style="fill:#009fc9"/><rect x="193.12" y="81.73" width="6.47" height="6.47" transform="translate(-2.57 163.73) rotate(-45)" style="fill:#009fc9"/><rect x="188.22" y="88.25" width="4.85" height="4.85" transform="translate(-8.28 161.36) rotate(-45)" style="fill:#009fc9"/><rect x="183.31" y="94.78" width="3.23" height="3.23" transform="translate(-14 159) rotate(-45)" style="fill:#009fc9"/><rect x="178.4" y="101.3" width="1.62" height="1.62" transform="translate(-19.71 156.64) rotate(-45)" style="fill:#009fc9"/><rect x="155.53" y="44.13" width="1.62" height="1.62" transform="translate(14.02 123.72) rotate(-45)" style="fill:#009fc9"/><rect x="160.44" y="49.04" width="3.23" height="3.23" transform="translate(11.64 129.43) rotate(-45)" style="fill:#009fc9"/><rect x="155.53" y="55.57" width="1.62" height="1.62" transform="translate(5.93 127.07) rotate(-45)" style="fill:#009fc9"/><rect x="165.35" y="53.95" width="4.85" height="4.85" transform="translate(9.28 135.15) rotate(-45)" style="fill:#009fc9"/><rect x="160.44" y="60.48" width="3.23" height="3.23" transform="translate(3.56 132.77) rotate(-45)" style="fill:#009fc9"/><rect x="155.53" y="67" width="1.62" height="1.62" transform="translate(-2.16 130.42) rotate(-45)" style="fill:#009fc9"/><rect x="170.26" y="58.86" width="6.47" height="6.47" transform="translate(6.91 140.86) rotate(-45)" style="fill:#009fc9"/><rect x="165.35" y="65.38" width="4.85" height="4.85" transform="translate(1.19 138.49) rotate(-45)" style="fill:#009fc9"/><rect x="160.44" y="71.91" width="3.23" height="3.23" transform="translate(-4.53 136.12) rotate(-45)" style="fill:#009fc9"/><rect x="155.53" y="78.44" width="1.62" height="1.62" transform="translate(-10.24 133.77) rotate(-45)" style="fill:#009fc9"/><rect x="170.26" y="70.29" width="6.47" height="6.47" transform="translate(-1.18 144.21) rotate(-45)" style="fill:#009fc9"/><rect x="165.35" y="76.82" width="4.85" height="4.85" transform="translate(-6.89 141.84) rotate(-45)" style="fill:#009fc9"/><rect x="160.44" y="83.34" width="3.23" height="3.23" transform="translate(-12.61 139.48) rotate(-45)" style="fill:#009fc9"/><rect x="155.53" y="89.87" width="1.62" height="1.62" transform="translate(-18.33 137.12) rotate(-45)" style="fill:#009fc9"/><polygon points="184.93 67.81 179.21 62.09 173.49 67.81 179.21 73.53 173.49 79.24 179.21 84.96 184.93 79.24 190.64 73.53 184.93 67.81" style="fill:#009fc9"/><rect x="170.26" y="81.73" width="6.47" height="6.47" transform="translate(-9.26 147.56) rotate(-45)" style="fill:#009fc9"/><rect x="165.35" y="88.25" width="4.85" height="4.85" transform="translate(-14.98 145.2) rotate(-45)" style="fill:#009fc9"/><rect x="160.44" y="94.78" width="3.23" height="3.23" transform="translate(-20.7 142.82) rotate(-45)" style="fill:#009fc9"/><rect x="155.53" y="101.3" width="1.62" height="1.62" transform="translate(-26.41 140.47) rotate(-45.01)" style="fill:#009fc9"/><polygon points="231.33 68.48 231.33 68.48 224.94 62.09 219.23 67.81 224.94 73.53 224.94 73.53 224.94 73.53 224.94 73.53 219.23 79.24 224.94 84.96 230.66 79.24 236.38 73.53 231.33 68.48" style="fill:#009fc9"/><path d="M186.34,22.46a.87.87,0,0,1,.8,1.18,16.56,16.56,0,0,1-15.67,10.45,17,17,0,1,1,0-34.09,16.81,16.81,0,0,1,15.73,10.65.86.86,0,0,1-.81,1.16h-5.24a.85.85,0,0,1-.75-.44,10.2,10.2,0,0,0-9-5.55c-6.39,0-10.52,5.37-10.52,11.18,0,6,4.31,11.28,10.57,11.28a10.23,10.23,0,0,0,8.9-5.38.87.87,0,0,1,.75-.44Z" style="fill:#0068b6"/><path d="M190.7,32.61V1.48a.86.86,0,0,1,.86-.86h4.89a.86.86,0,0,1,.86.86V13.3a.5.5,0,0,0,.5.51h11.65a.5.5,0,0,0,.5-.51V1.48a.87.87,0,0,1,.86-.86h4.89a.86.86,0,0,1,.86.86V32.61a.86.86,0,0,1-.86.86h-4.89a.87.87,0,0,1-.86-.86V20.12a.5.5,0,0,0-.5-.5H197.81a.5.5,0,0,0-.5.5V32.61a.86.86,0,0,1-.86.86h-4.89A.86.86,0,0,1,190.7,32.61Z" style="fill:#0068b6"/><path d="M225.78,33.47h-5.71a.68.68,0,0,1-.63-.94L232.19,1.1a.76.76,0,0,1,.7-.48h4.79a.77.77,0,0,1,.71.48l12.44,31.44a.68.68,0,0,1-.63.93h-5.76a.68.68,0,0,1-.64-.44l-2.14-5.76a.38.38,0,0,0-.34-.24H228.86a.37.37,0,0,0-.34.24L226.42,33A.68.68,0,0,1,225.78,33.47Zm8.81-23.86-4.05,11.55a.45.45,0,0,0,.42.59h8.21a.44.44,0,0,0,.41-.59L235.42,9.6A.44.44,0,0,0,234.59,9.61Z" style="fill:#0068b6"/><path d="M274.73,22.25,274.6,1.52a.9.9,0,0,1,.9-.9h4.56a.89.89,0,0,1,.89.89V32.57a.9.9,0,0,1-.9.9h-4.48a.91.91,0,0,1-.75-.4L260.58,11.69a.34.34,0,0,0-.62.19l.12,20.69a.89.89,0,0,1-.89.9h-4.56a.89.89,0,0,1-.89-.89V1.41a.78.78,0,0,1,.78-.79h4.7a.77.77,0,0,1,.65.35L274.1,22.44A.34.34,0,0,0,274.73,22.25Z" style="fill:#0068b6"/><path d="M310.44,10.7a.94.94,0,0,1-.78-.42A10.7,10.7,0,0,0,307.49,8a9.92,9.92,0,0,0-6.3-2.17c-5.28,0-10.65,4-10.65,11.14,0,7.41,5.41,11.32,10.65,11.32a10.9,10.9,0,0,0,6.53-2,8.79,8.79,0,0,0,3.14-4.19.59.59,0,0,0-.55-.78H299.79a1,1,0,0,1-1-.95V16.93a1,1,0,0,1,1-.95h18a.92.92,0,0,1,.92.92,19.07,19.07,0,0,1-1.48,7.34c-3.06,6.83-10.12,9.85-16,9.85A17,17,0,0,1,283.92,17c0-9.81,7.82-17,17.41-17a17.37,17.37,0,0,1,15.5,9.35A1,1,0,0,1,316,10.7Z" style="fill:#0068b6"/><path d="M322.39.62H339a.91.91,0,0,1,.91.91v4a.91.91,0,0,1-.91.91H328.63a.53.53,0,0,0-.53.53v6.39a.53.53,0,0,0,.53.53h10.14a.91.91,0,0,1,.91.91v4a.91.91,0,0,1-.91.91H328.63a.53.53,0,0,0-.53.53v6.88a.53.53,0,0,0,.53.53H339a.91.91,0,0,1,.91.91v4a.91.91,0,0,1-.91.91h-16.6a.91.91,0,0,1-.91-.91v-31A.91.91,0,0,1,322.39.62Z" style="fill:#0068b6"/><path d="M242.46,71a.84.84,0,0,1,.85-.84h9.28c3.2,0,5.54.64,7.19,1.83a8.27,8.27,0,0,1-.87,14,8.41,8.41,0,0,1,6.18,8.38A8.81,8.81,0,0,1,261,102c-2.38,1.65-4.4,2-8.56,2h-9.1a.84.84,0,0,1-.85-.84Zm5.41,12.79a.42.42,0,0,0,.42.43h4a8.19,8.19,0,0,0,3.44-.55A4.33,4.33,0,0,0,258,79.46a4.23,4.23,0,0,0-2.29-4,7.75,7.75,0,0,0-3.57-.6h-3.89a.42.42,0,0,0-.42.43Zm0,15.08a.42.42,0,0,0,.42.42h5a10.07,10.07,0,0,0,3.62-.55,5.19,5.19,0,0,0,0-9.39,9.69,9.69,0,0,0-4.08-.6h-4.57a.42.42,0,0,0-.42.43Z" style="fill:#0068b6"/><path d="M270.89,70.12h3.72a.84.84,0,0,1,.84.84V98.83a.42.42,0,0,0,.42.42h10.69a.84.84,0,0,1,.84.84v3.08a.83.83,0,0,1-.84.84H270.84a.8.8,0,0,1-.8-.8V71A.84.84,0,0,1,270.89,70.12Z" style="fill:#0068b6"/><path d="M295.4,70.12a.84.84,0,0,1,.85.84V91.28c0,2.11,0,3.94,1.23,5.91a6,6,0,0,0,5.23,2.7,5.8,5.8,0,0,0,5.13-2.61c1.28-1.92,1.28-3.8,1.28-6V71a.84.84,0,0,1,.84-.84h3.68a.84.84,0,0,1,.84.84V91.28c0,4.49-.69,7.92-3.67,10.4a11.68,11.68,0,0,1-8.06,3c-2.43,0-5.91-.69-8.2-2.94-3.34-3-3.76-6.32-3.71-10.44V71a.84.84,0,0,1,.84-.84Z" style="fill:#0068b6"/><path d="M321.78,70.12h17.28a.83.83,0,0,1,.84.84V74a.84.84,0,0,1-.84.84H326.77a.43.43,0,0,0-.43.43v8.76a.43.43,0,0,0,.43.43h12.11a.85.85,0,0,1,.84.84v3a.85.85,0,0,1-.84.85H326.77a.42.42,0,0,0-.43.42v9.19a.42.42,0,0,0,.43.42h12.29a.84.84,0,0,1,.84.84v3.08a.83.83,0,0,1-.84.84H321.78a.84.84,0,0,1-.84-.84V71A.84.84,0,0,1,321.78,70.12Z" style="fill:#0068b6"/><path d="M242.89,42.87h9a.42.42,0,0,1,.42.42v1.82a.42.42,0,0,1-.42.42H245.7a.22.22,0,0,0-.22.22v5.09a.22.22,0,0,0,.22.22h6.12a.42.42,0,0,1,.42.42v1.79a.42.42,0,0,1-.42.43H245.7a.21.21,0,0,0-.22.21v7.48a.42.42,0,0,1-.42.42h-2.17a.42.42,0,0,1-.43-.42V43.29A.42.42,0,0,1,242.89,42.87Z" style="fill:#0068b6"/><path d="M254.49,52.44a9.92,9.92,0,1,1,9.88,9.73,9.71,9.71,0,0,1-9.88-9.73Zm3-.1a6.91,6.91,0,1,0,6.93-7.17,6.95,6.95,0,0,0-6.93,7.17Z" style="fill:#0068b6"/><path d="M276.75,43.29a.42.42,0,0,1,.42-.42h4.93c3,0,4.5.41,5.5,1.1a6.08,6.08,0,0,1,2.51,5.12A6.39,6.39,0,0,1,289,52.7a5,5,0,0,1-3.44,2,.15.15,0,0,0-.1.23l3.92,6.2a.42.42,0,0,1-.36.65h-2.19a.42.42,0,0,1-.36-.2l-4.84-8a.25.25,0,0,1,.16-.38h.27c1.31,0,2.89,0,3.79-.82a4,4,0,0,0,1.3-3.09,3.87,3.87,0,0,0-1.61-3.2,5.93,5.93,0,0,0-3.22-.62H280a.24.24,0,0,0-.24.24V61.39a.42.42,0,0,1-.42.42h-2.18a.42.42,0,0,1-.42-.42Z" style="fill:#0068b6"/><path d="M301.82,45.53h-3.68a.43.43,0,0,1-.43-.43V43.3a.43.43,0,0,1,.43-.43H309a.43.43,0,0,1,.43.43v1.8a.43.43,0,0,1-.43.43h-3.69a.23.23,0,0,0-.23.24V61.38a.43.43,0,0,1-.43.43h-2.16a.43.43,0,0,1-.43-.43V45.77A.24.24,0,0,0,301.82,45.53Z" style="fill:#0068b6"/><path d="M311.7,61.38V43.3a.44.44,0,0,1,.44-.43h2.15a.43.43,0,0,1,.43.43v7.32a.24.24,0,0,0,.23.24h7.71a.24.24,0,0,0,.23-.24V43.3a.43.43,0,0,1,.43-.43h2.16a.43.43,0,0,1,.43.43V61.38a.43.43,0,0,1-.43.43h-2.16a.43.43,0,0,1-.43-.43V53.75a.23.23,0,0,0-.23-.23H315a.23.23,0,0,0-.23.23v7.63a.43.43,0,0,1-.43.43h-2.15A.44.44,0,0,1,311.7,61.38Z" style="fill:#0068b6"/><path d="M329.74,42.87h9.73a.43.43,0,0,1,.43.43v1.8a.43.43,0,0,1-.43.43h-6.91a.23.23,0,0,0-.23.23v4.92a.23.23,0,0,0,.23.23h6.81a.43.43,0,0,1,.43.43v1.77a.43.43,0,0,1-.43.43h-6.81a.23.23,0,0,0-.23.23v5.15a.23.23,0,0,0,.23.23h6.91a.43.43,0,0,1,.43.43v1.8a.43.43,0,0,1-.43.43h-9.73a.43.43,0,0,1-.43-.43V43.3A.43.43,0,0,1,329.74,42.87Z" style="fill:#0068b6"/></svg>