<svg xmlns="http://www.w3.org/2000/svg" viewBox="0 0 149.38 256.13"><path d="M4.09,254.24a23.93,23.93,0,0,0,.73-3.4.27.27,0,0,0-.27-.31H4.28l0,0a22.38,22.38,0,0,1-2.57,5.11.27.27,0,0,1-.44,0L.18,254.12a.27.27,0,0,1,0-.32,21.1,21.1,0,0,0,2.35-4.36.27.27,0,0,1,.43-.1l.78.69a.27.27,0,0,0,.45-.2v-1a.28.28,0,0,1,.27-.28h.4a.28.28,0,0,0,.28-.24c.07-.74.11-1.28.14-1.78-.11.11-.12.14-.34.36l-1.38-1.45a.27.27,0,0,1,0-.39,8.68,8.68,0,0,0,2.3-3.45.28.28,0,0,1,.28-.17l1.71.16a.28.28,0,0,1,.23.36,1.34,1.34,0,0,1-.07.18c-.06.18-.12.37.07.37h6.41a.27.27,0,0,1,.27.27v1.49a.27.27,0,0,1-.27.27H7a.29.29,0,0,0-.23.12c-.06.1-.13.2-.23.34a.24.24,0,0,0,.2.38h7.07a.36.36,0,0,1,.35.36c0,.66,0,1.92,0,2.55,0,.15,0,.27.2.27h.16a.28.28,0,0,1,.27.28v1.4a.27.27,0,0,1-.27.27h-.22c-.14,0-.19.11-.19.26s0,.47,0,.75,0,.29.17.29h.1a.28.28,0,0,1,.28.27v1.41a.29.29,0,0,1-.28.28H14c-.13,0-.17.09-.19.23-.1.79-.37,1.95-1.74,1.95H9.93a.28.28,0,0,1-.26-.21l-.23-1a.27.27,0,0,1,.26-.33h1.38c.53,0,.59-.33.64-.59h-5a.28.28,0,0,0-.27.21,6.87,6.87,0,0,1-.19.78A.27.27,0,0,1,6,255l-1.69-.39A.27.27,0,0,1,4.09,254.24Zm-2.58-8.75a10.33,10.33,0,0,1,2.24,1.39.27.27,0,0,1,.06.36l-1,1.39a.27.27,0,0,1-.39.06,9.81,9.81,0,0,0-2.07-1.4.28.28,0,0,1-.1-.4l.89-1.3A.28.28,0,0,1,1.51,245.49ZM2,241.6a11.18,11.18,0,0,1,2.32,1.3.28.28,0,0,1,.05.37l-1,1.39a.26.26,0,0,1-.39.05,13.8,13.8,0,0,0-2.11-1.33.26.26,0,0,1-.1-.39l.89-1.3A.28.28,0,0,1,2,241.6Zm6.32,10c.06-.41.1-.67.12-.87a.22.22,0,0,0-.22-.24h-1a.21.21,0,0,0-.21.19c0,.18-.07.49-.12.86a.23.23,0,0,0,.22.25h1A.21.21,0,0,0,8.27,251.64Zm-1-4.09c0,.36,0,.59,0,.8a.21.21,0,0,0,.21.23h.92a.22.22,0,0,0,.22-.2c0-.39,0-.62.05-.81a.23.23,0,0,0-.22-.23H7.52A.23.23,0,0,0,7.3,247.55Zm3.17,3.17c0,.29-.05.59-.08.87a.21.21,0,0,0,.21.24h1.08a.22.22,0,0,0,.22-.21c0-.45,0-.7,0-.87a.21.21,0,0,0-.22-.22h-1A.22.22,0,0,0,10.47,250.72Zm.23-3.17c0,.24,0,.57,0,.8a.22.22,0,0,0,.22.23h.93a.21.21,0,0,0,.22-.21c0-.33,0-.56,0-.81a.22.22,0,0,0-.22-.22h-.9A.21.21,0,0,0,10.7,247.55Z" style="fill:#0068b6"/><path d="M22,254.07a.5.5,0,0,1,.41-.68c1.38-.18,3.63-.83,3.63-3.87a2.85,2.85,0,0,0-2.25-3.11.36.36,0,0,0-.43.32c-.12,1.63-.8,7.84-4.24,7.84-2.24,0-3-2.49-3-4.17,0-4.13,3.14-6.29,6.52-6.29,3.85,0,5.84,2.41,5.84,5.56a6,6,0,0,1-1.92,4.57,7.28,7.28,0,0,1-3.6,1.41.49.49,0,0,1-.54-.33Zm-3.59-3.62c0,.34.08,1.56.8,1.56s1.59-2.15,1.9-5.07a.3.3,0,0,0-.41-.3A4.07,4.07,0,0,0,18.44,250.45Z" style="fill:#0068b6"/><path d="M36.09,242.72V242a.51.51,0,0,1,.5-.5h1.35a.5.5,0,0,1,.49.5v.77a.33.33,0,0,0,.33.33h4.33a.49.49,0,0,1,.5.49v1.17a.49.49,0,0,1-.5.49H38.76a.33.33,0,0,0-.33.33v1.12a.33.33,0,0,0,.33.33H44a.49.49,0,0,1,.5.49v1.17a.49.49,0,0,1-.5.49H40.33a.34.34,0,0,0-.24.56,12.14,12.14,0,0,0,4.13,3,.5.5,0,0,1,.23.71l-.82,1.39a.5.5,0,0,1-.68.18,16.16,16.16,0,0,1-3.93-3.3.34.34,0,0,0-.59.21v3.65a.49.49,0,0,1-.49.5H36.59a.5.5,0,0,1-.5-.5v-3.66a.32.32,0,0,0-.58-.2,13.85,13.85,0,0,1-3.92,3.3.49.49,0,0,1-.68-.19l-.78-1.4a.49.49,0,0,1,.22-.69,12.87,12.87,0,0,0,4.18-3,.33.33,0,0,0-.25-.55h-3.7a.49.49,0,0,1-.5-.49v-1.17a.49.49,0,0,1,.5-.49h5.19a.32.32,0,0,0,.32-.33v-1.12a.32.32,0,0,0-.32-.33H31.51a.5.5,0,0,1-.5-.49v-1.17a.5.5,0,0,1,.5-.49h4.26A.32.32,0,0,0,36.09,242.72Z" style="fill:#0068b6"/><path d="M49.59,244.91h-2.4a.34.34,0,0,1-.34-.34v-1.46a.34.34,0,0,1,.34-.34h4.92a.2.2,0,0,0,.2-.2v-.74a.35.35,0,0,1,.35-.35h1.59a.35.35,0,0,1,.34.35v.74a.2.2,0,0,0,.21.2h5a.35.35,0,0,1,.35.34v1.46a.35.35,0,0,1-.35.34H57.38l1.24.26a.35.35,0,0,1,.26.43,20,20,0,0,1-.73,2.08.2.2,0,0,0,.19.29h2a.35.35,0,0,1,.34.35v1.48a.34.34,0,0,1-.34.34H56.56a.21.21,0,0,0-.15.36,13.68,13.68,0,0,0,4.17,2.75.35.35,0,0,1,.17.49l-.93,1.6a.34.34,0,0,1-.45.14A13.71,13.71,0,0,1,55,252.05a.22.22,0,0,0-.39.15v3.43a.34.34,0,0,1-.34.34H52.66a.35.35,0,0,1-.35-.34v-3.36a.22.22,0,0,0-.38-.16,15.2,15.2,0,0,1-4.32,3.37.34.34,0,0,1-.45-.14l-.95-1.64a.34.34,0,0,1,.17-.49,12.88,12.88,0,0,0,4.16-2.71.21.21,0,0,0-.15-.36H46.61a.34.34,0,0,1-.34-.34v-1.48a.35.35,0,0,1,.34-.35h2a.21.21,0,0,0,.21-.26,14.54,14.54,0,0,0-.65-2.05.35.35,0,0,1,.24-.47ZM49.53,248H52a.27.27,0,0,0,.27-.27v-2.51a.28.28,0,0,0-.27-.28H50.71a.24.24,0,0,0-.23.34,14.82,14.82,0,0,1,.66,2,.35.35,0,0,1-.26.42Zm6.41-.84c.25-.62.5-1.43.64-1.9a.25.25,0,0,0-.24-.32H54.87a.29.29,0,0,0-.28.28v2.51a.28.28,0,0,0,.28.27h2.84l-1.53-.38A.34.34,0,0,1,55.94,247.13Z" style="fill:#0068b6"/><path d="M68.39,243.8c0,.19-.08.34-.13.53a.14.14,0,0,0,.14.19h4.51a.31.31,0,0,1,.31.31v1.52a.31.31,0,0,1-.31.31H67.56a.19.19,0,0,0-.15.11,5,5,0,0,1-.4.87,3.74,3.74,0,0,1,1.65-.42,2.25,2.25,0,0,1,2.12,1.13,20.31,20.31,0,0,1,2.86-.88.3.3,0,0,1,.38.24l.32,1.66a.3.3,0,0,1-.24.35c-.59.12-1.47.4-2.68.79a.19.19,0,0,0-.14.2c0,.59,0,1.09,0,1.31v.39a.31.31,0,0,1-.31.31H69.3a.31.31,0,0,1-.31-.32c0-.15,0-.33,0-.65a.19.19,0,0,0-.28-.18c-.49.25-1,.61-1,1.18,0,.77,1,.81,2.37.81,1,0,2.15,0,3.14-.14a.31.31,0,0,1,.34.3v1.68a.32.32,0,0,1-.3.32l-2.79,0a10.72,10.72,0,0,1-3.79-.48A2.4,2.4,0,0,1,65.14,253c0-1.92,2.08-3,3.44-3.71a1.1,1.1,0,0,0-.7-.23,3.67,3.67,0,0,0-2.3,1.22,16.22,16.22,0,0,1-1.58,2.1.32.32,0,0,1-.45,0l-1.23-1.26a.3.3,0,0,1,0-.43,12.21,12.21,0,0,0,2.6-3.85.17.17,0,0,0-.15-.23H63a.31.31,0,0,1-.31-.31v-1.52a.31.31,0,0,1,.31-.31h2.53a.16.16,0,0,0,.15-.12c.06-.29.1-.53.15-.82a.31.31,0,0,1,.32-.27l1.92.11A.3.3,0,0,1,68.39,243.8Z" style="fill:#0068b6"/><path d="M115,244.48v1.26a.37.37,0,0,1-.14.3c-.71.53-2.06,1.27-2.78,1.81a.08.08,0,0,0,0,.14,4.48,4.48,0,0,1,.91-.07,3.49,3.49,0,0,1,3.75,3.78c0,2.74-2,4.43-5.36,4.43-2.91,0-3.76-1.53-3.76-2.59,0-1.5,1.47-2.32,2.82-2.32a2.25,2.25,0,0,1,2.49,2.14,2.49,2.49,0,0,1-.07.53,2,2,0,0,0,1.5-1.92c0-.23,0-2.05-2.52-2.05a5.32,5.32,0,0,0-3.19,1.09,21.13,21.13,0,0,0-2.33,1.9.25.25,0,0,1-.37-.06l-.85-1.57a.38.38,0,0,1,.09-.47c1-.8,4.24-3.26,5.31-4.15.1-.09,0-.34-.1-.34l-3.92.09a.35.35,0,0,1-.37-.36v-1.52a.36.36,0,0,1,.36-.36l8.1-.07A.38.38,0,0,1,115,244.48Zm-3.75,9.38a.85.85,0,0,0-.88-.91c-.49,0-.83.24-.83.62,0,.58.7.65,1.11.65a2.38,2.38,0,0,0,.56-.07A1.35,1.35,0,0,0,111.29,253.86Z" style="fill:#0068b6"/><path d="M122.48,253.94a5.45,5.45,0,0,0,2.26-2.33.12.12,0,0,0-.17-.16c-.53.29-.95.5-1.3.66a.32.32,0,0,1-.45-.21l-.38-1.44c0-.15-.26-.09-.36-.05a.18.18,0,0,0-.11.16v4.07a1.22,1.22,0,0,1-1.24,1.35h-1.57a.34.34,0,0,1-.34-.3l-.22-1.59a.34.34,0,0,1,.33-.39h.47c.23,0,.43,0,.43-.43v-1.85a.21.21,0,0,0-.27-.19l-.65.2a.32.32,0,0,1-.41-.28l-.17-1.73a.31.31,0,0,1,.25-.35c.23,0,.47-.1,1.07-.25a.25.25,0,0,0,.18-.23v-2.29a.22.22,0,0,0-.22-.22h-.82a.32.32,0,0,1-.32-.32v-1.49a.32.32,0,0,1,.32-.32h.82a.22.22,0,0,0,.22-.22v-1.93a.32.32,0,0,1,.32-.33h1.5a.32.32,0,0,1,.32.33v1.93a.22.22,0,0,0,.22.22h.7l1-.93a.32.32,0,0,1,.49.05,8.34,8.34,0,0,1,.75,1.27.08.08,0,0,0,.15,0v-2.54a.26.26,0,0,1,.26-.25h1.57a.25.25,0,0,1,.25.25v6.59c0,4.82-2,6.56-3.37,7.51a.34.34,0,0,1-.47-.06l-1.12-1.36A.35.35,0,0,1,122.48,253.94Zm1.87-6.65a.27.27,0,0,1-.43-.12,10.85,10.85,0,0,0-.9-2.32v.9a.34.34,0,0,1-.34.34h-.49a.22.22,0,0,0-.22.22v1.63a.18.18,0,0,0,.23.17c.22-.06.34-.11.47-.15a.27.27,0,0,1,.36.25l0,1.38c1.19-.5,1.63-.69,2-.86a.42.42,0,0,0,.22-.37v-1.49a.17.17,0,0,0-.28-.13Zm7,4.17a10.91,10.91,0,0,0-1-1.93.11.11,0,0,0-.2.06v3.49c0,.2,0,.37.2.37h.54c.23,0,.41,0,.45-1.12a.34.34,0,0,1,.43-.31l1.19.37a.34.34,0,0,1,.23.33c-.07,2.38-.58,3.16-1.58,3.16h-2.19c-.76,0-1.38-.33-1.38-1.25V241.78a.26.26,0,0,1,.26-.25h1.6a.26.26,0,0,1,.26.25l0,3.1c0,.15.17.2.23.07a14.8,14.8,0,0,0,.83-1.81.24.24,0,0,1,.37-.13l1.37.9a.25.25,0,0,1,.09.31,13.4,13.4,0,0,1-1.77,3l-.87-.72a.17.17,0,0,0-.28.14V248a.15.15,0,0,0,.23.12l.7-.5a.25.25,0,0,1,.36.05,15.76,15.76,0,0,1,1.66,2.72.25.25,0,0,1-.08.31l-1.18.92A.32.32,0,0,1,131.35,251.46Z" style="fill:#0068b6"/><path d="M149.09,248.63a15.14,15.14,0,0,1-2,3.55c.2.55.32.89.55.89s.57-.49.83-1a.23.23,0,0,1,.42,0l.49,1.57a.63.63,0,0,1,0,.45c-.43,1-1.25,1.83-2,1.83-1.12,0-1.73-1.33-2-1.93a11.87,11.87,0,0,1-2.05,1.61.42.42,0,0,1-.57-.13l-1.08-1.71h-1.31a.22.22,0,0,0-.22.22v1.61a.33.33,0,0,1-.33.33h-1.54a.33.33,0,0,1-.33-.33v-1.61a.22.22,0,0,0-.22-.22h-2.62a.36.36,0,0,1-.36-.35v-1.39a.35.35,0,0,1,.36-.35h2.58a.26.26,0,0,0,.26-.26v-.27a.26.26,0,0,0-.26-.25h-2.1a.38.38,0,0,1-.37-.37v-6a.2.2,0,0,1,.22-.2h.24a12.33,12.33,0,0,0-.85-2.06.23.23,0,0,1,.14-.33l1.55-.43a.23.23,0,0,1,.26.12,16.52,16.52,0,0,1,.85,1.87.23.23,0,0,1-.15.3l-1.66.53H140a13.17,13.17,0,0,0,1.17-2.76.22.22,0,0,1,.27-.16l1.83.47a.23.23,0,0,1,.15.31c-.33.72-1.1,2-1.16,2.14h.33a.17.17,0,0,1,.19.19v6a.37.37,0,0,1-.36.37h-2.11a.25.25,0,0,0-.25.25v.27a.26.26,0,0,0,.25.26h2.47a.35.35,0,0,1,.36.35v.79a15.69,15.69,0,0,0,1.43-1.17,31.75,31.75,0,0,1-.53-4.21l-.7,0a.3.3,0,0,1-.31-.3v-1.6a.29.29,0,0,1,.27-.29l.68-.06c0-.49-.06-2.7-.06-3.15v-.37a.29.29,0,0,1,.29-.3h1.58a.29.29,0,0,1,.29.3v.51a.1.1,0,0,0,.15.09l1.24-.73a.35.35,0,0,1,.46.1,16.2,16.2,0,0,1,1.2,2,.35.35,0,0,1-.15.45l-1.42.82,1.23-.08a.34.34,0,0,1,.36.34l0,1.5a.33.33,0,0,1-.31.35l-2.65.19c.06,1,.12,1.61.18,2.1a7.26,7.26,0,0,0,.79-1.75.31.31,0,0,1,.45-.18l1.29.75A.31.31,0,0,1,149.09,248.63Zm-12-2.63v.9h1V246Zm0,2.37v.92h1v-.92Zm2.79-6.81a12.45,12.45,0,0,1,.38,2,.23.23,0,0,1-.2.25l-1.54.24a.24.24,0,0,1-.27-.21,10.78,10.78,0,0,0-.41-2,.23.23,0,0,1,.2-.3l1.6-.15A.23.23,0,0,1,139.85,241.56ZM140,246v.9h1V246Zm0,2.37v.92h1v-.92Zm7.5-3.42a10.81,10.81,0,0,0-1.22-2.23.08.08,0,0,0-.15,0c0,.83,0,1.88,0,2.38l1.26-.08A.08.08,0,0,0,147.48,245Z" style="fill:#0068b6"/><path d="M101.82,247.21v1.44a.26.26,0,0,1-.13.22,31.8,31.8,0,0,0-2.82,2,2.26,2.26,0,0,1,.88-.2c1.23,0,1.28,1,1.28,1.62v.45c0,.72,0,1,1.15,1,.14,0,1.11,0,2.06-.08a.26.26,0,0,1,.28.25l0,1.79a.25.25,0,0,1-.24.27c-.45,0-1,0-1.74,0-1.52,0-2.82,0-3.36-.73a2.27,2.27,0,0,1-.46-1.35v-.65c0-.36,0-.81-.67-.81-.91,0-1.59.52-4.29,3.45a.25.25,0,0,1-.38,0l-1.25-1.44a.27.27,0,0,1,0-.37c1-.88,4-3.45,4.66-4,.29-.24.53-.44.74-.6a.2.2,0,0,0-.13-.36l-4.43.15a.27.27,0,0,1-.27-.27v-1.74A.26.26,0,0,1,93,247l8.52-.05A.26.26,0,0,1,101.82,247.21Zm-.9-.9-5.39-.89a.26.26,0,0,1-.21-.32l.33-1.55a.27.27,0,0,1,.3-.2l5.37.93a.27.27,0,0,1,.21.32l-.32,1.51A.26.26,0,0,1,100.92,246.31Z" style="fill:#0068b6"/><path d="M77.68,248.71a12,12,0,0,0,2-2.92.32.32,0,0,0-.17-.45l-1.31-.53a.34.34,0,0,0-.42.16,9.21,9.21,0,0,1-1.59,2.28.32.32,0,0,0,0,.46l1,1A.34.34,0,0,0,77.68,248.71Z" style="fill:#0068b6"/><path d="M87,245.43a.38.38,0,0,0-.14.53A13.66,13.66,0,0,0,89,248.77a.47.47,0,0,0,.65,0l.94-1a.39.39,0,0,0,0-.54,13.31,13.31,0,0,1-1.94-2.46.12.12,0,0,1,.1-.17h1.45a.48.48,0,0,0,.47-.48V243a.47.47,0,0,0-.47-.48H84.67a.11.11,0,0,1-.11-.12v-.37a.49.49,0,0,0-.48-.48H82.62a.48.48,0,0,0-.47.48v.37a.12.12,0,0,1-.12.12h-5.5a.47.47,0,0,0-.47.48v1.13a.48.48,0,0,0,.47.48h3.91a.3.3,0,0,1,.29.37,4.16,4.16,0,0,1-1.79,2.66.45.45,0,0,0-.06.66l.89,1a.11.11,0,0,1,0,.17A11.68,11.68,0,0,1,76.69,251a.48.48,0,0,0-.25.68l.6,1.1a.48.48,0,0,0,.59.22,17.7,17.7,0,0,0,1.64-.71.31.31,0,0,1,.36.07,7.69,7.69,0,0,0,.69.65.26.26,0,0,1-.11.45,24.74,24.74,0,0,1-3.43.55.48.48,0,0,0-.41.63l.35,1.08a.49.49,0,0,0,.5.33,24.51,24.51,0,0,0,5.9-1.35h.08a26.92,26.92,0,0,0,6.21,1.36.48.48,0,0,0,.5-.3l.52-1.26a.48.48,0,0,0-.42-.66,24.41,24.41,0,0,1-3.75-.47.12.12,0,0,1,0-.22,9.68,9.68,0,0,0,2-1.76.5.5,0,0,0,.13-.32v-1.24a.48.48,0,0,0-.48-.48H83.21l.27-.35a.19.19,0,0,0-.12-.3l-1.73-.47a.11.11,0,0,1,0-.19,6.28,6.28,0,0,0,1.33-3.18.29.29,0,0,1,.3-.25H84a.29.29,0,0,1,.3.3v1.17c0,.46,0,.51-.41.51h-.36a.43.43,0,0,0-.43.51l.26,1.37a.35.35,0,0,0,.35.3h1.43a1.15,1.15,0,0,0,1.29-1.14v-2.72a.3.3,0,0,1,.31-.3H88a.11.11,0,0,1,.06.21Zm-5.13,5.76h2.94a.22.22,0,0,1,.12.39,10.75,10.75,0,0,1-1.43.8.4.4,0,0,1-.37,0,11.57,11.57,0,0,1-1.38-.8A.21.21,0,0,1,81.9,251.19Z" style="fill:#0068b6"/><rect x="37.95" y="188.01" width="1.3" height="1.3" transform="translate(-122.09 82.55) rotate(-45)" style="fill:#009fc9"/><rect x="41.89" y="191.95" width="2.59" height="2.59" transform="translate(-123.99 87.14) rotate(-45)" style="fill:#009fc9"/><rect x="45.83" y="195.88" width="3.89" height="3.89" transform="translate(-125.89 91.73) rotate(-45)" style="fill:#009fc9"/><rect x="41.89" y="201.12" width="2.59" height="2.59" transform="translate(-130.48 89.83) rotate(-45)" style="fill:#009fc9"/><rect x="49.77" y="199.82" width="5.19" height="5.19" transform="translate(-127.79 96.31) rotate(-45)" style="fill:#009fc9"/><rect x="45.83" y="205.06" width="3.89" height="3.89" transform="translate(-132.38 94.41) rotate(-45)" style="fill:#009fc9"/><rect x="49.77" y="209" width="5.19" height="5.19" transform="translate(-134.28 99) rotate(-45)" style="fill:#009fc9"/><rect x="45.83" y="214.23" width="3.89" height="3.89" transform="translate(-138.86 97.1) rotate(-45)" style="fill:#009fc9"/><rect x="41.89" y="219.47" width="2.59" height="2.59" transform="translate(-143.45 95.2) rotate(-45)" style="fill:#009fc9"/><rect x="49.77" y="218.17" width="5.19" height="5.19" transform="translate(-140.77 101.68) rotate(-45)" style="fill:#009fc9"/><rect x="45.83" y="223.4" width="3.89" height="3.89" transform="translate(-145.36 99.79) rotate(-45)" style="fill:#009fc9"/><rect x="41.89" y="228.64" width="2.59" height="2.59" transform="translate(-149.94 97.89) rotate(-45)" style="fill:#009fc9"/><rect x="37.95" y="233.87" width="1.3" height="1.3" transform="translate(-154.53 95.99) rotate(-45)" style="fill:#009fc9"/><rect x="19.61" y="188.01" width="1.3" height="1.3" transform="translate(-127.47 69.58) rotate(-45)" style="fill:#009fc9"/><rect x="23.55" y="191.95" width="2.59" height="2.59" transform="translate(-129.37 74.17) rotate(-45)" style="fill:#009fc9"/><rect x="27.48" y="195.88" width="3.89" height="3.89" transform="translate(-131.27 78.75) rotate(-45)" style="fill:#009fc9"/><rect x="23.55" y="201.12" width="2.59" height="2.59" transform="translate(-135.86 76.86) rotate(-45)" style="fill:#009fc9"/><rect x="31.42" y="199.82" width="5.19" height="5.19" transform="translate(-133.17 83.34) rotate(-45)" style="fill:#009fc9"/><rect x="27.48" y="205.06" width="3.89" height="3.89" transform="translate(-137.75 81.44) rotate(-45)" style="fill:#009fc9"/><rect x="31.42" y="209" width="5.19" height="5.19" transform="translate(-139.66 86.03) rotate(-45)" style="fill:#009fc9"/><rect x="27.48" y="214.23" width="3.89" height="3.89" transform="translate(-144.24 84.12) rotate(-45)" style="fill:#009fc9"/><rect x="23.55" y="219.47" width="2.59" height="2.59" transform="translate(-148.83 82.23) rotate(-45)" style="fill:#009fc9"/><polygon points="43.19 207 38.6 202.42 34.02 207 38.6 211.59 34.02 216.18 38.6 220.76 43.19 216.18 47.78 211.59 43.19 207" style="fill:#009fc9"/><rect x="31.42" y="218.17" width="5.19" height="5.19" transform="translate(-146.14 88.71) rotate(-45)" style="fill:#009fc9"/><rect x="27.48" y="223.4" width="3.89" height="3.89" transform="translate(-150.73 86.81) rotate(-45)" style="fill:#009fc9"/><rect x="23.55" y="228.64" width="2.59" height="2.59" transform="translate(-155.31 84.91) rotate(-45)" style="fill:#009fc9"/><rect x="19.61" y="233.87" width="1.3" height="1.3" transform="translate(-159.9 83.01) rotate(-45)" style="fill:#009fc9"/><rect x="1.26" y="188.01" width="1.3" height="1.3" transform="translate(-132.84 56.61) rotate(-45)" style="fill:#009fc9"/><rect x="5.2" y="191.95" width="2.59" height="2.59" transform="translate(-134.74 61.2) rotate(-45)" style="fill:#009fc9"/><rect x="1.26" y="197.18" width="1.3" height="1.3" transform="translate(-139.33 59.29) rotate(-45)" style="fill:#009fc9"/><rect x="9.14" y="195.88" width="3.89" height="3.89" transform="translate(-136.64 65.78) rotate(-45)" style="fill:#009fc9"/><rect x="5.2" y="201.12" width="2.59" height="2.59" transform="translate(-141.23 63.88) rotate(-45)" style="fill:#009fc9"/><rect x="1.26" y="206.36" width="1.3" height="1.3" transform="translate(-145.81 61.98) rotate(-45)" style="fill:#009fc9"/><rect x="13.08" y="199.82" width="5.19" height="5.19" transform="translate(-138.54 70.37) rotate(-45)" style="fill:#009fc9"/><rect x="9.14" y="205.06" width="3.89" height="3.89" transform="translate(-143.12 68.46) rotate(-45)" style="fill:#009fc9"/><rect x="5.2" y="210.29" width="2.59" height="2.59" transform="translate(-147.72 66.57) rotate(-45)" style="fill:#009fc9"/><rect x="1.26" y="215.53" width="1.3" height="1.3" transform="translate(-152.3 64.67) rotate(-45)" style="fill:#009fc9"/><rect x="13.08" y="209" width="5.19" height="5.19" transform="translate(-145.03 73.06) rotate(-45)" style="fill:#009fc9"/><rect x="9.14" y="214.23" width="3.89" height="3.89" transform="translate(-149.61 71.15) rotate(-45)" style="fill:#009fc9"/><rect x="5.2" y="219.47" width="2.59" height="2.59" transform="translate(-154.2 69.26) rotate(-45)" style="fill:#009fc9"/><rect x="1.26" y="224.7" width="1.3" height="1.3" transform="translate(-158.79 67.35) rotate(-45)" style="fill:#009fc9"/><polygon points="24.84 207 20.26 202.42 15.67 207 20.26 211.59 15.67 216.18 20.26 220.76 24.84 216.18 29.43 211.59 24.84 207" style="fill:#009fc9"/><rect x="13.08" y="218.17" width="5.19" height="5.19" transform="translate(-151.51 75.74) rotate(-45)" style="fill:#009fc9"/><rect x="9.14" y="223.4" width="3.89" height="3.89" transform="translate(-156.1 73.84) rotate(-45)" style="fill:#009fc9"/><rect x="5.2" y="228.64" width="2.59" height="2.59" transform="translate(-160.69 71.94) rotate(-45)" style="fill:#009fc9"/><rect x="1.26" y="233.87" width="1.3" height="1.3" transform="translate(-165.27 70.04) rotate(-45)" style="fill:#009fc9"/><polygon points="62.07 207.54 62.07 207.54 56.95 202.42 52.36 207 56.95 211.59 56.95 211.59 56.95 211.59 56.95 211.59 52.36 216.18 56.95 220.76 61.54 216.18 66.12 211.59 62.07 207.54" style="fill:#009fc9"/><path d="M26,170.62a.69.69,0,0,1,.64.94A13.28,13.28,0,0,1,14.05,180a13.68,13.68,0,1,1,0-27.35,13.49,13.49,0,0,1,12.63,8.55.69.69,0,0,1-.65.93H21.78a.67.67,0,0,1-.6-.36,8.16,8.16,0,0,0-7.2-4.45c-5.13,0-8.44,4.31-8.44,9,0,4.81,3.45,9,8.47,9A8.21,8.21,0,0,0,21.16,171a.7.7,0,0,1,.6-.35Z" style="fill:#0068b6"/><path d="M29.47,178.76v-25a.69.69,0,0,1,.69-.69h3.93a.69.69,0,0,1,.69.69v9.49a.4.4,0,0,0,.4.4h9.35a.4.4,0,0,0,.4-.4v-9.49a.69.69,0,0,1,.69-.69h3.92a.69.69,0,0,1,.69.69v25a.69.69,0,0,1-.69.69H45.62a.69.69,0,0,1-.69-.69v-10a.4.4,0,0,0-.4-.41H35.18a.4.4,0,0,0-.4.41v10a.69.69,0,0,1-.69.69H30.16A.69.69,0,0,1,29.47,178.76Z" style="fill:#0068b6"/><path d="M57.62,179.45H53a.54.54,0,0,1-.5-.75l10.22-25.22a.61.61,0,0,1,.57-.38h3.84a.61.61,0,0,1,.56.39l10,25.22a.54.54,0,0,1-.51.74H72.59a.54.54,0,0,1-.51-.35l-1.72-4.62a.3.3,0,0,0-.27-.19h-10a.29.29,0,0,0-.27.19l-1.69,4.62A.54.54,0,0,1,57.62,179.45Zm7.07-19.14-3.25,9.27a.35.35,0,0,0,.34.47h6.58a.35.35,0,0,0,.33-.47l-3.34-9.27A.35.35,0,0,0,64.69,160.31Z" style="fill:#0068b6"/><path d="M96.89,170.45l-.1-16.63a.72.72,0,0,1,.71-.72h3.66a.72.72,0,0,1,.72.72v24.91a.73.73,0,0,1-.73.72H97.56a.72.72,0,0,1-.6-.32L85.54,162a.27.27,0,0,0-.5.15l.09,16.6a.7.7,0,0,1-.71.72H80.76a.71.71,0,0,1-.71-.71v-25a.63.63,0,0,1,.63-.63h3.77a.64.64,0,0,1,.52.28l11.41,17.23A.28.28,0,0,0,96.89,170.45Z" style="fill:#0068b6"/><path d="M125.53,161.19a.75.75,0,0,1-.62-.34,8.91,8.91,0,0,0-1.74-1.84,8,8,0,0,0-5-1.74,8.55,8.55,0,0,0-8.55,8.94c0,5.94,4.35,9.08,8.55,9.08a8.74,8.74,0,0,0,5.23-1.6,7,7,0,0,0,2.52-3.36.47.47,0,0,0-.44-.63H117a.76.76,0,0,1-.76-.77v-2.74a.77.77,0,0,1,.76-.77h14.47a.72.72,0,0,1,.73.74,15.3,15.3,0,0,1-1.18,5.89c-2.46,5.48-8.12,7.9-12.86,7.9a13.64,13.64,0,0,1-13.88-13.74c0-7.87,6.26-13.61,14-13.61a13.93,13.93,0,0,1,12.43,7.5.76.76,0,0,1-.69,1.09Z" style="fill:#0068b6"/><path d="M135.13,153.1h13.31a.73.73,0,0,1,.73.73V157a.73.73,0,0,1-.73.73h-8.31a.43.43,0,0,0-.43.43v5.12a.43.43,0,0,0,.43.43h8.14a.73.73,0,0,1,.73.73v3.21a.73.73,0,0,1-.73.73h-8.14a.42.42,0,0,0-.43.42v5.52a.43.43,0,0,0,.43.43h8.31a.73.73,0,0,1,.73.73v3.2a.72.72,0,0,1-.73.73H135.13a.72.72,0,0,1-.73-.73V153.83A.73.73,0,0,1,135.13,153.1Z" style="fill:#0068b6"/><path d="M71,209.53a.69.69,0,0,1,.68-.68h7.45a9.73,9.73,0,0,1,5.77,1.47,6.19,6.19,0,0,1,2.75,5.52,6.11,6.11,0,0,1-3.45,5.69,6.76,6.76,0,0,1,5,6.73,7.09,7.09,0,0,1-3.31,6.21c-1.91,1.32-3.53,1.58-6.87,1.58h-7.3a.68.68,0,0,1-.68-.68Zm4.34,10.26a.35.35,0,0,0,.34.35h3.23a6.69,6.69,0,0,0,2.75-.44,3.48,3.48,0,0,0,1.84-3.35,3.4,3.4,0,0,0-1.84-3.2,6.34,6.34,0,0,0-2.87-.47H75.68a.34.34,0,0,0-.34.34Zm0,12.1a.34.34,0,0,0,.34.34h4a8.28,8.28,0,0,0,2.91-.44,4.17,4.17,0,0,0,0-7.54,7.8,7.8,0,0,0-3.27-.48H75.68a.35.35,0,0,0-.34.35Z" style="fill:#0068b6"/><path d="M93.8,208.85h3a.69.69,0,0,1,.68.68v22.36a.34.34,0,0,0,.34.34h8.57a.68.68,0,0,1,.68.67v2.47a.68.68,0,0,1-.68.68H93.77a.64.64,0,0,1-.64-.64V209.53A.68.68,0,0,1,93.8,208.85Z" style="fill:#0068b6"/><path d="M113.47,208.85a.68.68,0,0,1,.68.68v16.3a8.07,8.07,0,0,0,1,4.74,4.84,4.84,0,0,0,4.19,2.17,4.65,4.65,0,0,0,4.12-2.09c1-1.55,1-3.05,1-4.82v-16.3a.68.68,0,0,1,.67-.68h2.95a.69.69,0,0,1,.68.68v16.3c0,3.6-.55,6.36-2.94,8.34a9.39,9.39,0,0,1-6.47,2.39,9.69,9.69,0,0,1-6.58-2.35c-2.68-2.39-3-5.07-3-8.38v-16.3a.69.69,0,0,1,.68-.68Z" style="fill:#0068b6"/><path d="M134.64,208.85H148.5a.68.68,0,0,1,.67.68V212a.68.68,0,0,1-.67.68h-9.86a.34.34,0,0,0-.34.34v7a.34.34,0,0,0,.34.34h9.71a.69.69,0,0,1,.68.68v2.43a.68.68,0,0,1-.68.68h-9.71a.34.34,0,0,0-.34.34v7.37a.34.34,0,0,0,.34.34h9.86a.67.67,0,0,1,.67.67v2.47a.67.67,0,0,1-.67.68H134.64a.67.67,0,0,1-.68-.68V209.53A.68.68,0,0,1,134.64,208.85Z" style="fill:#0068b6"/><path d="M71.34,187h7.25a.34.34,0,0,1,.34.34v1.45a.34.34,0,0,1-.34.34h-5a.18.18,0,0,0-.17.18v4.08a.18.18,0,0,0,.17.18h4.91a.34.34,0,0,1,.34.34v1.43a.34.34,0,0,1-.34.34H73.6a.18.18,0,0,0-.17.18v6a.34.34,0,0,1-.34.34H71.34a.34.34,0,0,1-.34-.34V187.34A.34.34,0,0,1,71.34,187Z" style="fill:#0068b6"/><path d="M80.65,194.68a8,8,0,1,1,7.93,7.8,7.79,7.79,0,0,1-7.93-7.8Zm2.4-.09a5.55,5.55,0,1,0,5.57-5.75,5.58,5.58,0,0,0-5.57,5.75Z" style="fill:#0068b6"/><path d="M98.51,187.33a.34.34,0,0,1,.34-.33h4c2.38,0,3.62.32,4.42.88a4.89,4.89,0,0,1,2,4.11,5.15,5.15,0,0,1-.86,2.89,4,4,0,0,1-2.76,1.63.12.12,0,0,0-.08.19l3.14,5a.33.33,0,0,1-.28.52h-1.76a.34.34,0,0,1-.29-.16s-3.81-6.28-3.89-6.39,0-.31.14-.31h.21a5,5,0,0,0,3-.65,3.23,3.23,0,0,0,1-2.49,3.13,3.13,0,0,0-1.3-2.57,4.78,4.78,0,0,0-2.58-.49h-1.89a.2.2,0,0,0-.19.19v12.53a.34.34,0,0,1-.33.34H98.85a.34.34,0,0,1-.34-.34Z" style="fill:#0068b6"/><path d="M118.62,189.13h-3a.35.35,0,0,1-.35-.35v-1.44a.35.35,0,0,1,.35-.34h8.71a.35.35,0,0,1,.35.34v1.44a.35.35,0,0,1-.35.35h-2.95a.19.19,0,0,0-.19.19v12.52a.35.35,0,0,1-.35.35h-1.73a.35.35,0,0,1-.35-.35V189.32A.19.19,0,0,0,118.62,189.13Z" style="fill:#0068b6"/><path d="M126.55,201.84v-14.5a.35.35,0,0,1,.35-.34h1.73a.34.34,0,0,1,.34.34v5.88a.19.19,0,0,0,.19.18h6.18a.18.18,0,0,0,.18-.18v-5.88a.35.35,0,0,1,.35-.34h1.73a.35.35,0,0,1,.35.34v14.5a.35.35,0,0,1-.35.35h-1.73a.35.35,0,0,1-.35-.35v-6.12a.18.18,0,0,0-.18-.18h-6.18a.19.19,0,0,0-.19.18v6.12a.35.35,0,0,1-.34.35H126.9A.35.35,0,0,1,126.55,201.84Z" style="fill:#0068b6"/><path d="M141,187h7.81a.34.34,0,0,1,.34.34v1.44a.34.34,0,0,1-.34.35h-5.55a.18.18,0,0,0-.18.19v3.94a.18.18,0,0,0,.18.18h5.46a.35.35,0,0,1,.35.35v1.42a.35.35,0,0,1-.35.35h-5.46a.18.18,0,0,0-.18.18v4.13a.18.18,0,0,0,.18.18h5.55a.35.35,0,0,1,.34.35v1.44a.35.35,0,0,1-.34.35H141a.35.35,0,0,1-.35-.35v-14.5A.35.35,0,0,1,141,187Z" style="fill:#0068b6"/><path d="M4,2.08a1.08,1.08,0,0,0-.47,0,.21.21,0,0,0-.15.18.27.27,0,0,1-.15.08c-.1,0-.16.19-.19.26a1.53,1.53,0,0,1-.1.17L2.72,3a.16.16,0,0,0,0,.11.44.44,0,0,1-.06.23s-.31.47-.36.57S2,4.63,2,4.7a3.07,3.07,0,0,0-.15.54c0,.15-.63,2.46-.63,2.64s-.07.29-.09.88a9.54,9.54,0,0,1-.1,1C1,9.94.76,14,.78,14.28s0,.4,0,.56,0,.4,0,.65,0,4.45,0,4.61-.27.35.05.53c0,0,.06,0,.06.15S.86,21,.93,21s.06.1,0,.17-.06.12,0,.18,0,.17,0,.24a.16.16,0,0,0,0,.2,1,1,0,0,1,0,.57c-.08.16-.15.48-.06.58s0,.14,0,.18-.23.13,0,.43a.91.91,0,0,1,0,.61s-.09.05,0,.13,0,.22,0,.29,0,.07,0,.13-.26.17,0,.42c0,0,0,.25,0,.3s-.29.26,0,.27A.53.53,0,0,1,.71,26c-.06.11-.14.15,0,.2a.14.14,0,0,1,0,.2c-.09.13-.12.24,0,.28s0,.14,0,.14a.14.14,0,0,0,.06.23,1.48,1.48,0,0,1,0,.33c0,.18-.18,2.82-.19,3s-.22,2.74-.2,3,0,.3,0,.3.09.12,0,.2l0,.23L.13,36s.12.17.06.27-.15.23,0,.24l0,.62,0,.1s-.21.15,0,.2l0,.1s-.26.16,0,.24c0,0,0,.22-.08.25s.08,4,.08,4a37.26,37.26,0,0,0,.72,5.64s0,.17.09.18.05.23.07.34.41,1.82.61,2.4v.24s-.05.14.14.37a1.94,1.94,0,0,1,.1.52,1.22,1.22,0,0,0,.16.69.92.92,0,0,1,.2.42c0,.18-.08.22.11.27,0,0,0,.43,0,.67a1,1,0,0,0,.21.7c.16.18.05.48.26.77a2.36,2.36,0,0,1,.35.69c.12.23.51,1.14.64,1.3a.44.44,0,0,1,.13.25.48.48,0,0,0,.06.2l.43.54c.08.08,0,.19.16.29s0,.26.16.29c0,0,0,.12.08.13a.36.36,0,0,1,.13,0l.16.26c0,.05-.06.25.16.27A3.33,3.33,0,0,0,5.6,60a2.31,2.31,0,0,0,.18.23s0,.23.1.23.08.12.08.12a7.59,7.59,0,0,0,.88,1.31c.27.22.11.13.11.13s0,.23.2.27c0,0,0,.07,0,.12a3.4,3.4,0,0,0,.29.33s.11,0,.11.19c0,0,.6.75.78,1A26.44,26.44,0,0,0,11,66.76s.13.1.13.18.22.18.22.18.13-.15.16,0a.35.35,0,0,0,.14.26l.12,0a6.71,6.71,0,0,0,.55.4c.08,0,.2.09.21.17s.09.09.19.13a.48.48,0,0,1,.18.19.65.65,0,0,0,.28.16,3.84,3.84,0,0,1,.54.35c.07.06.11,0,.13.11s0,.14.06.14a2.66,2.66,0,0,1,.41.16,3.28,3.28,0,0,1,.56.36c.07.11.25.09.32.13a.57.57,0,0,1,.17.15,6.28,6.28,0,0,0,.59.37,6.4,6.4,0,0,0,.62.22,2.3,2.3,0,0,1,.53.27.45.45,0,0,0,.29.14l.14.12a.87.87,0,0,0,.29.09,1.61,1.61,0,0,1,.55.22c.14.11.21.23.36.2s.26-.06.31,0,.34.08.38.08,0,.09.14.13a.24.24,0,0,0,.16,0,1.38,1.38,0,0,0,.44.14c.25,0,.35,0,.37.12s.17,0,.26.06.91.28,1.21.34,1.15.27,1.34.33a5.17,5.17,0,0,0,.64.06c.09,0,.27.15.41.19s.14-.11.21-.08a1,1,0,0,1,.2.08c.1,0,1.69.13,2.23.16a3.35,3.35,0,0,1,.9.11.34.34,0,0,0,.24.06l.71,0s.05.21.32,0h.11l.59,0a.35.35,0,0,0,.32,0h.23l1.62-.07,2.74-.24a10.92,10.92,0,0,0,1.52-.21,40.34,40.34,0,0,0,5.49-1.79s.14-.11.23-.06.36-.18.88-.39a.41.41,0,0,1,.26,0c.14,0,.3-.23.33-.39s.23,0,.32,0a3.82,3.82,0,0,0,.49-.43l.39-.19a9.32,9.32,0,0,0,1.06-.88s.37-.15.37-.31l3.3-2.82s0-.22.2-.2.6-.56.68-.56.8-.49.86-.85a7.51,7.51,0,0,1,.63-.71A56.79,56.79,0,0,0,56,57.72a3,3,0,0,0,.36-.65A12.23,12.23,0,0,1,57.14,56a.59.59,0,0,1,.18-.29c.08-.05,1.47-3.32,1.73-4s1.4-3.86,1.48-4.4.15-.4.18-.42.59-1.54.69-1.82.68-3.12.68-3.12a1.48,1.48,0,0,0,.14-.21c.08-.13,0-.53.06-.64l.14-.35a1.37,1.37,0,0,1,0-.36c0-.12.54-3.05.59-3.18a7,7,0,0,0,.18-.84c.05-.25.57-4.42.62-4.57a1.15,1.15,0,0,0,.12-.37c0-.16.2-3.69.28-4.26s.32-2.35.37-2.64a1.11,1.11,0,0,1,.14-.39s0-.08,0-.15.06-.06.06-.09,0-.08,0-.12a2.27,2.27,0,0,1,.07-.5l.2-.6s0-.29.06-.5.31-1.39.4-1.74a7,7,0,0,1,.2-.82.38.38,0,0,0,.12-.2c0-.13-.09-.19,0-.28a1.07,1.07,0,0,0,.11-.26c.06-.11,0-.13,0-.28a5.09,5.09,0,0,0,.23-.83,2.89,2.89,0,0,1,.06-.68,1.55,1.55,0,0,1,.28-.68c.15-.11,0-.2.09-.37s.09-.87.14-1a1.26,1.26,0,0,0,.2-.57,6.74,6.74,0,0,1,0-1.11c0-.17.2-.28.2-.36a1.27,1.27,0,0,1,0-.52,17.81,17.81,0,0,0,.26-2,14.61,14.61,0,0,0,0-2.18c-.06-.48-.11-.8-.11-.8a1.11,1.11,0,0,1-.09-.23c-.06-.23-.11-.53-.15-.62a10.9,10.9,0,0,0-.44-1.28,9.51,9.51,0,0,1-.52-1c-.06-.14-.34-.37-.37-.45s0-.15-.08-.2a.55.55,0,0,1-.13-.08,4.35,4.35,0,0,0-.4-.29.75.75,0,0,0-.4-.11s-.44-.14-.75.42a3.57,3.57,0,0,0,.09,1.44,7,7,0,0,1,.17,1.16.22.22,0,0,1,0,.08.21.21,0,0,0,0,.32s.09.07,0,.16a.18.18,0,0,0-.07.22c0,.06,0,.15-.18.22s-.15.06-.34,0-.43-.42-.58-.63S63,6.33,63,6.17a.78.78,0,0,0-.22-.37.46.46,0,0,1-.17-.21c0-.12-.49-1-.61-1.22a1.17,1.17,0,0,1-.2-.44c0-.09-.08-.11-.1-.15s-.59-.89-.67-1a1.69,1.69,0,0,1-.32-.47.91.91,0,0,0-.18-.24c0-.06-1-.95-1-1S59.38,1,59.34,1s-.57-.4-.67-.45a1.46,1.46,0,0,0-.55-.1,1,1,0,0,0-.7.26s-.09.12-.06.54a.28.28,0,0,0,0,.2c0,.1.16.44.2.52s.16.25.2.34a4,4,0,0,1,.09.51c0,.15,0,.15,0,.17a1.57,1.57,0,0,1,.31.42c.12.23.27.79.34,1s.28.52.35.69a5.14,5.14,0,0,1,.3.94c0,.19.09.7.08.82s0,.28-.29.34A.49.49,0,0,1,58.5,7a10.26,10.26,0,0,1-.87-.8c-.08-.12-.81-.82-.89-.9s-.44-.53-.59-.68-.76-.71-.89-.85-.53-.6-.57-.67,0-.07-.27-.24-.17-.23-.25-.31A4.78,4.78,0,0,0,53.49,2c-.26-.14-.56-.38-.62-.41s-.06-.15-.09-.17-.11,0-.14-.07l-.12-.14a.44.44,0,0,0-.19-.1s-.15,0-.22,0a3.79,3.79,0,0,1-.29-.26L51.65.7c-.07,0-.21-.16-.35-.17a1,1,0,0,0-.66,0c-.28.12-.3.16-.3.16l-.14,0s0,.15,0,.19-.14.12-.07.21,0,.15-.06.18a.32.32,0,0,0-.14.26c0,.09.14.22.24.34s0,.13.06.22.72,1,.77,1.11.33.48.46.63.41.49.45.52.07.13.12.19.12,0,.18.13,0,.19.09.25.07,0,.15.07a.51.51,0,0,1,.26.2c.07.09.48.63.57.78s.22.39.27.47.19,0,.19.22a1.12,1.12,0,0,0,.17.2c.05,0,.12.19.17.24s.26.37.36.46a.65.65,0,0,1,.16.32l.21.54a1.9,1.9,0,0,1,0,.64.4.4,0,0,1-.31.3c-.14,0-.36-.15-.43-.15s-.14,0-.19,0-.05-.18-.1-.21-.21,0-.29-.06a1,1,0,0,1-.27-.24,5.49,5.49,0,0,1-.52-.44c0-.06,0-.12-.12-.19S52.51,8,52.45,8a1,1,0,0,0-.22-.09.71.71,0,0,1-.15-.21,2.24,2.24,0,0,0-.35-.39c-.06,0-.28-.29-.33-.33l-.63-.56c-.06,0,0-.09-.09-.13s-.11,0-.15-.06A1.34,1.34,0,0,1,50.28,6s-.05-.13-.11-.17a.31.31,0,0,0-.17,0,.36.36,0,0,1-.23-.15l-.29-.25s0-.1-.08-.16-.2-.09-.2-.09l-.64-.34-.17-.14s-.1,0-.15,0a2.86,2.86,0,0,1-.41-.29.87.87,0,0,0-.3-.07c-.06,0-.3,0-.37-.08a.51.51,0,0,0-.46.09,1,1,0,0,0-.3.3c0,.08-.09.23-.11.26s-.13.17-.07.25,0,.17.07.24.05.46.07.58.07.15.07.18,0,.16.09.22.44.62.54.74.34.48.47.61.2.2.19.23a.31.31,0,0,0,.11.2c.05,0,.09.08.12.13s.08,0,.14.08.12.24.18.3a1.19,1.19,0,0,1,.15.21c0,.06.28.27.34.35s.06.22.09.27a.25.25,0,0,0,.17.16.42.42,0,0,1,.19.13c0,.06,0,.17.1.22a2.08,2.08,0,0,0,.38.47c.14.13.46.6.56.71s0,.17.09.21a.53.53,0,0,1,.14.11,2.17,2.17,0,0,1,.33.58,1.23,1.23,0,0,1,0,.62,1.48,1.48,0,0,1-.28.33.3.3,0,0,1-.24.09A1.4,1.4,0,0,1,50,13a.46.46,0,0,1-.14-.07,3.43,3.43,0,0,0-.48-.08l-.9-.39c-.08,0-.27-.05-.4-.09s-.69-.38-.8-.41a7.17,7.17,0,0,0-.83-.25,1.53,1.53,0,0,0-.61,0,.84.84,0,0,0-.34.19s-.15.2-.18.23a.31.31,0,0,1-.13.06s-.1.13-.11.23a2.38,2.38,0,0,1-.07.31,1.22,1.22,0,0,0,.08.43.86.86,0,0,1,.12.35c0,.07,0,.25.06.29a.8.8,0,0,0,.15.2c.06.05.37.55.45.65a.5.5,0,0,1,.11.2,4.64,4.64,0,0,0,.41.44,8.63,8.63,0,0,1,.8.8c.11.14.23.27.3.35l1,.86c.2.17,1,.83,1.14,1a10.66,10.66,0,0,1,.77.89,11.82,11.82,0,0,1,.67,1c.13.21.16.32.21.4s.11.11.15.18.42.85.48,1a5,5,0,0,1,.17.49c0,.06.12.21.15.29l.45,1.05a.8.8,0,0,1,.08.29.49.49,0,0,0,.1.19,7.41,7.41,0,0,1,.32.83c.06.23.06.42.09.48a2.28,2.28,0,0,1,.12.39c0,.12.3,1.08.32,1.32s.14,1.17.17,1.28,0,.34,0,.41a3.43,3.43,0,0,1,.08.38c0,.14.06,1,.08,1.17s0,1.32,0,1.41a.15.15,0,0,1,0,.13s-.1.08,0,.19a1,1,0,0,1,0,.19c0,.06,0,1.06,0,1.18s-.06.81-.07,1-.07.66-.08.76,0,.09-.06.27,0,.45,0,.54a3.55,3.55,0,0,0-.09.47c0,.09,0,.33-.05.4s-.13.19-.15.24a1.54,1.54,0,0,1-.08.19.2.2,0,0,0,0,.23c.09.06.06.15,0,.17s-.12.18,0,.27a.13.13,0,0,1,0,.17s-.12.08,0,.17a.25.25,0,0,1,0,.28s-.11,0-.14.06.07.11.11.19,0,.13,0,.18-.19.1-.15.14.06,0,.06.11a.16.16,0,0,1-.06.15s-.07,0-.07.11a.9.9,0,0,1,0,.18s0,.11,0,.16,0,.07,0,.08-.08,0-.11.07a1.86,1.86,0,0,0,0,.33c0,.07,0,.09-.06.11a.07.07,0,0,0-.06.06c0,.06,0,.13,0,.16a.32.32,0,0,0,0,.23c0,.11,0,.14.08.19a.15.15,0,0,1,0,.18s-.12.06-.14.1,0,.27,0,.31-.12.11-.12.14,0,.05,0,.07a.25.25,0,0,1,0,.17.36.36,0,0,1-.07.1s-.13.06,0,.11,0,.07,0,.11-.09.36-.12.44-.26.86-.34,1.07-.46,1.15-.52,1.3l-.35.84c0,.08-.18.28-.21.31s-.43.86-.49,1-.35.76-.4.81a1.36,1.36,0,0,0-.08.32,1.28,1.28,0,0,1-.14.29c0,.09-.33.44-.35.52s-.13.21-.14.27,0,.13,0,.18a1.48,1.48,0,0,0-.08.13.86.86,0,0,0-.11.28,2.8,2.8,0,0,1-.3.46.6.6,0,0,0-.07.2s-.11.1-.13.15a1.56,1.56,0,0,0,0,.16c0,.06-.16.23-.19.29s0,.13-.09.23-.66,1-.74,1.16-.32.45-.38.54-.38.47-.44.59a3.28,3.28,0,0,0-.39.56c0,.13-.08.17-.11.24s-.78.68-.87.78a2.88,2.88,0,0,1-.25.26,1,1,0,0,0-.21.14c0,.05-2.15,1.78-2.29,1.87s-1.14.91-1.24,1a1.94,1.94,0,0,1-.29.24l-.62.38c-.14.08-1,.49-1.16.57s-1.38.45-1.57.52a3.16,3.16,0,0,1-.56.15l-.27,0a1.66,1.66,0,0,0-.41.14c-.12,0-1.31.29-1.57.32s-1.14.16-1.3.17-4.14.08-4.35.07-.8,0-.89-.05a1.46,1.46,0,0,1-.21-.09l-1.5-.05L25.46,61c-.16,0-.53-.11-.65-.13s-.57-.14-.71-.15a5.68,5.68,0,0,1-.71-.09c-.09,0-.1-.09-.17-.1l-.41-.1c-.11,0-.74-.31-.86-.37s-.58-.33-.69-.36a2,2,0,0,1-.36-.16c-.08-.05-.64-.32-.74-.35a1.73,1.73,0,0,1-.3-.16,3.15,3.15,0,0,0-.49-.22,2.35,2.35,0,0,1-.38-.23s-.06-.12-.1-.13l-.21-.07a.5.5,0,0,0-.2-.18.43.43,0,0,1-.23-.17c-.06,0-1.13-.85-1.35-1s-1.27-1.12-1.42-1.32-.85-1.09-.94-1.23a.85.85,0,0,1-.12-.29.4.4,0,0,0-.12-.2c-.07-.07-.53-.88-.57-.92s0-.23-.08-.25a2.53,2.53,0,0,1-.19-.22.6.6,0,0,1-.11-.26c0-.07-.11-.1-.11-.21a.31.31,0,0,0-.13-.29s-.1-.12-.1-.18-.06-.1-.1-.14a.53.53,0,0,1-.15-.26,1.75,1.75,0,0,0-.34-.69.44.44,0,0,1-.15-.25,1.83,1.83,0,0,0,0-.34c0-.06-.1-.21-.12-.28s-.47-1.11-.56-1.41S11,46.19,10.93,46s-.27-1.4-.27-1.48-.05-.32,0-.38a2.31,2.31,0,0,0,0-.52,1.15,1.15,0,0,1-.07-.33,2.72,2.72,0,0,0-.09-.4,1.37,1.37,0,0,1-.1-.28c0-.06-.05-.51-.05-.51s.08,0,.07-.06L10.29,42a1.83,1.83,0,0,1,0-.25c0-.06-.09-.73-.09-.85s0-1.36,0-1.42,0-.08,0-.11,0-.2,0-.29a1.72,1.72,0,0,1-.08-.38,5.41,5.41,0,0,0,0-.57c0-.06,0-1.67,0-1.87s.07-1,.07-1a.14.14,0,0,1,0-.11c.05,0,0,0,0-.07s0-.73.06-.89.2-1.08.23-1.27a2.15,2.15,0,0,1,.12-.58c0-.08.1,0,.1-.31,0,0,.12-.11.1-.22a.27.27,0,0,1,.06-.21.32.32,0,0,0,.08-.14c0-.11,0-.41,0-.49s.54-1.88.64-2.17.45-1,.53-1.27a2.74,2.74,0,0,1,.11-.42.58.58,0,0,1,.15-.13c.07,0,0-.15,0-.18a1,1,0,0,1,.17-.28c.08-.07,0-.09,0-.14a1.31,1.31,0,0,1,.1-.3s.07,0,.1-.15a9.3,9.3,0,0,1,.4-1.07,11.09,11.09,0,0,1,.55-1.07c.15-.19.31-.54.38-.63s.34-.6.44-.72a5.58,5.58,0,0,1,.59-.79c.17-.15.42-.47.52-.55s.3-.26.38-.31a2.78,2.78,0,0,1,.49-.39,2,2,0,0,0,.46-.44,1.79,1.79,0,0,1,.34-.31c.08,0,.28.05.23-.15a.06.06,0,0,1,.05-.08c.08,0,.25-.23.32-.23s.16,0,.19-.06-.16-.14.05-.19a1.6,1.6,0,0,0,.44-.26s0-.18,0-.19a2,2,0,0,1,.31,0c.1,0,.18,0,.2,0s-.11-.23,0-.21.23,0,.33-.21.12-.06.18-.13.1-.21.2-.26a.73.73,0,0,1,.29-.11c.11,0,.18,0,.23-.19a.3.3,0,0,0,.12,0c.05,0,.06,0,.1-.13a.35.35,0,0,1,.21-.23c.1-.05,1-.75,1.17-.85s.65-.51.72-.52l.16-.06c.07,0,.15-.18.21-.18a.49.49,0,0,0,.16,0s0-.09.1-.11.13,0,.15,0,0-.17.1-.21.23-.2.29-.2.11,0,.12,0a1.55,1.55,0,0,1,0-.22,1.66,1.66,0,0,1,.3-.29.19.19,0,0,0,.1-.14s0-.14,0-.19a1.28,1.28,0,0,0,.17-.49,1.44,1.44,0,0,0-.09-.65.91.91,0,0,0-.5-.39l-.44-.09s-.06,0-.15,0a1.33,1.33,0,0,0-.19,0,4.82,4.82,0,0,1-.5.13c-.17,0-.33.09-.39.09s-.11,0-.19.06a1.79,1.79,0,0,1-.19.16s-.2,0-.3,0a.38.38,0,0,0-.18.08.36.36,0,0,1-.18.08l-.48.05c-.1,0-.21.1-.31.11l-.33.07c-.08,0-.25.1-.35.11A.84.84,0,0,1,19.4,13c-.27-.11-.39-.17-.41-.23a2.62,2.62,0,0,1-.07-.51c0-.1,0-.08,0-.12a.12.12,0,0,1,0-.15,3.56,3.56,0,0,0,.23-.35,1.42,1.42,0,0,1,.27-.38c.07-.1.06-.21.23-.32s.08-.23.08-.23a.54.54,0,0,1,.08-.15c.05-.06.49-.73.63-.91S20.9,9,21,8.94s0-.15.08-.21l.19-.24c0-.05,0-.13.06-.2s0-.06.18-.18a2.67,2.67,0,0,0,.4-.55L22.21,7a.71.71,0,0,0,.11-.35.32.32,0,0,1,.05-.2c0-.06,0-.16,0-.23s0-.23-.12-.31a1,1,0,0,0-.43-.28,2,2,0,0,0-.7-.07.48.48,0,0,0-.36.16c-.09,0-.38.27-.46.32s-.6.55-.69.61a1.19,1.19,0,0,0-.19.16s0,.1-.07.13-.6.49-.75.61-.49.4-.57.46a2,2,0,0,1-.21.12c-.1.06-.23.29-.27.33a.26.26,0,0,1-.18.05c-.06,0-.1-.07-.1,0s-.2.23-.23.27-.76.54-.82.58a.63.63,0,0,1-.22.09,1.8,1.8,0,0,1-.42,0c-.05,0-.13-.26-.15-.1,0,0,0,0-.06,0a.37.37,0,0,1-.21-.06A.91.91,0,0,1,15,9.05a.84.84,0,0,1,0-.47c.06-.16.06-.25.11-.36l.32-.51c.1-.16.21-.4.25-.44s0-.14.07-.19.1-.09.19-.21.31-.48.36-.59.11-.31.21-.35.08-.09.12-.17.28-.45.35-.56.12-.25.18-.38a2.89,2.89,0,0,1,.28-.51,5.2,5.2,0,0,1,.43-.61A.68.68,0,0,0,18,3.48s0-.22,0-.24.08-.11.08-.19,0-.3,0-.35.12-.11.13-.19a.86.86,0,0,0,0-.39A1.57,1.57,0,0,0,18,1.67a1.05,1.05,0,0,0-.58-.38A2.72,2.72,0,0,1,17,1.2a.5.5,0,0,0-.26,0,.76.76,0,0,1-.24.12.58.58,0,0,0-.24.11c-.06.05-.53.54-.59.62a3.68,3.68,0,0,0-.24.33c-.09.16-.88,1-.93,1.09a.55.55,0,0,0-.17.26c0,.15,0,.11-.07.16s-.17,0-.24.19a4.49,4.49,0,0,1-.31.48l-.57.57a1,1,0,0,0-.1.21c-.05.06-.4.4-.47.5s0,.18-.08.23-.61.74-.72.86a1.84,1.84,0,0,1-.5.44.38.38,0,0,1-.45-.13.79.79,0,0,1-.23-.53,5.3,5.3,0,0,1,.11-.79c.06-.22.37-1.17.44-1.32s.56-1.23.64-1.39.17-.31.21-.43a3.59,3.59,0,0,0,.12-.35,1.77,1.77,0,0,1,.21-.4s.09,0,.13-.17a1.24,1.24,0,0,1,.2-.41l.18-.3c0-.07.1-.24.05-.34a.28.28,0,0,1,0-.22s0-.19-.15-.34A.71.71,0,0,0,12,0a1.36,1.36,0,0,0-.58.11.22.22,0,0,0-.18.15,1.47,1.47,0,0,1-.31.29c-.11.07-.72.66-.8.74s-.43.45-.49.51A1.63,1.63,0,0,1,9.53,2c0,.05-.66.73-.74.84S8.7,3,8.65,3.1s-.45.68-.53.78a2.65,2.65,0,0,0-.31.46.27.27,0,0,0,0,.15c0,.07,0,.11-.11.19s-.42.71-.47.8-.06.12-.11.14a.31.31,0,0,0-.1.17c0,.06-.42.67-.48.75A1.57,1.57,0,0,1,6,7a1.69,1.69,0,0,1-.6-.12,1.64,1.64,0,0,1-.44-.43c-.08-.11-.18-.29-.24-.35s0-.11,0-.22a.52.52,0,0,0,0-.3,1.5,1.5,0,0,1,0-.42,8,8,0,0,1,.09-1,6.3,6.3,0,0,0,0-.66c0-.07,0-.07.06-.14a2.36,2.36,0,0,0,0-.29s0-.09,0-.13.06-.07,0-.15-.09-.18-.12-.26a1.13,1.13,0,0,0-.34-.31A1.62,1.62,0,0,0,4,2.08Z" style="fill:#0068b6"/><path d="M20.71,25.63l-1.05.51a1.17,1.17,0,0,0-.24.09l-.78.51a7,7,0,0,0-.68.5.7.7,0,0,0-.21.25c0,.06-.06.08-.15.14a1.09,1.09,0,0,0-.22.17,7.11,7.11,0,0,0-.64.79,3.23,3.23,0,0,0-.19.39c0,.05,0,.17,0,.22a1.12,1.12,0,0,0-.19.41,1.68,1.68,0,0,0,0,.45,1.82,1.82,0,0,0,.25.64.43.43,0,0,0,.2.12c.08,0,.1.07.16.13a.49.49,0,0,0,.3.12.92.92,0,0,0,.35-.05,3.34,3.34,0,0,1,.36-.1l.45-.24a1.5,1.5,0,0,0,.3-.23c.12-.1.33-.4.44-.52s.41-.46.54-.57.42-.38.52-.45a4,4,0,0,1,.54-.32c.08,0,.19-.11.32-.16a3.53,3.53,0,0,1,.75-.23,1.19,1.19,0,0,0,.31-.07,5.86,5.86,0,0,1,.76-.09c.21,0,.51-.07.72-.06a2,2,0,0,1,.54.12,2.15,2.15,0,0,1,.27.14,3.44,3.44,0,0,1,.41.12,4,4,0,0,1,.53.25c.19.12.55.3.67.39a.84.84,0,0,0,.34.17,2.7,2.7,0,0,0,.7,0,.92.92,0,0,0,.66-.43s.11,0,0-.64,0-.5-.1-.69a.68.68,0,0,0-.23-.31,3.59,3.59,0,0,1-.49-.45.68.68,0,0,0-.18-.2c-.09-.06-.25-.22-.31-.22a.18.18,0,0,1-.13,0s0-.1-.13-.14l-.3-.15c-.06,0-.06-.09-.16-.09a.45.45,0,0,1-.23,0c-.08,0-.28-.2-.35-.2H25s-.09-.12-.16-.14-.55,0-.67-.06-.26-.08-.39-.08-.6,0-.72,0a1,1,0,0,1-.31,0,3.56,3.56,0,0,0-.84.05,1.45,1.45,0,0,1-.29.13l-.6.05Z" style="fill:#0068b6"/><path d="M22.54,31a.65.65,0,0,0-.39,0c-.09,0-.25.08-.33.09s-.11.1-.18.14-.08.08-.16.09a.34.34,0,0,0-.23.08,1.74,1.74,0,0,0-.19.26c0,.08-.16.37-.23.55a1.23,1.23,0,0,0-.11.37c0,.09,0,.32,0,.46a1.35,1.35,0,0,0,.1.61,1.25,1.25,0,0,0,.35.38c.15.11.35.27.44.32a.59.59,0,0,0,.16.08.65.65,0,0,0,.24,0c.08,0,.15,0,.22,0a.29.29,0,0,0,.24.07,2.91,2.91,0,0,0,.35-.12.8.8,0,0,1,.26,0,.17.17,0,0,0,.18,0,1.14,1.14,0,0,1,.23-.16c.08,0,.17,0,.2-.12s.13-.24.16-.28.07-.15.13-.19l.16-.24a1.36,1.36,0,0,0,0-.17s0-.21,0-.34,0-.25,0-.33a2.88,2.88,0,0,0-.13-.31c0-.07-.13-.18-.14-.24a1,1,0,0,1-.05-.23.32.32,0,0,0-.11-.27,1.62,1.62,0,0,0-.4-.18c-.13,0-.23-.09-.33-.13a1.11,1.11,0,0,0-.24-.1.25.25,0,0,1-.12,0A.16.16,0,0,0,22.54,31Z" style="fill:#0068b6"/><path d="M45.28,25.07a4,4,0,0,1-.52,0,10.65,10.65,0,0,0-1.14,0,.69.69,0,0,1-.28,0,.36.36,0,0,0-.28,0,2.71,2.71,0,0,1-.6.06,1.56,1.56,0,0,1-.41,0,.37.37,0,0,0-.27,0c-.15.05-.9.19-1,.24s-.17,0-.32.06-.27.05-.34.08-1,.33-1.06.4-.2,0-.28.12a2.52,2.52,0,0,1-.27.18s-.27.11-.39.14-.09,0-.22.08a2,2,0,0,0-.36.24,1.14,1.14,0,0,1-.15.16s-.5.28-.65.4l-.53.37c-.1.06-.56.48-.72.62s-.45.4-.54.5l-.28.32s-.15,0-.13.07.07.12,0,.12a.17.17,0,0,0-.15.07,1.32,1.32,0,0,0-.18.22c0,.06-.21.3-.26.38s-.08.16-.13.16-.09,0-.09.09a.22.22,0,0,1-.08.18s-.19.26-.23.3a1.24,1.24,0,0,0-.18.21,1.36,1.36,0,0,1-.1.26c-.07.12-.51.81-.56.92a2.65,2.65,0,0,0-.16.28s0,.17-.07.2a.29.29,0,0,0-.18.16,2.09,2.09,0,0,1,0,.21c0,.08-.1.09-.12.13a.8.8,0,0,0-.11.21,1.29,1.29,0,0,1-.19.37c0,.07-.13.15-.14.19a.6.6,0,0,1,0,.19c0,.07-.17.11-.18.18s0,.16,0,.21-.11.13-.17.23a.74.74,0,0,0-.07.4.3.3,0,0,1-.09.25,1.54,1.54,0,0,0-.15.37c-.07.19-.31,1-.35,1.23a2.09,2.09,0,0,1-.11.44c-.06.09-.08.1-.1.17a2.22,2.22,0,0,0-.1.31,1.09,1.09,0,0,1,0,.17,1.12,1.12,0,0,1-.1.24.73.73,0,0,0,0,.32.78.78,0,0,1,0,.33,1.25,1.25,0,0,0-.1.29.88.88,0,0,1,0,.27c0,.16-.09.46-.1.58s-.1.91-.09,1.05.09.8.11,1a1.72,1.72,0,0,1,0,.3c0,.06.09.12.07.18s-.16.14,0,.18a.46.46,0,0,1,.12.14,1,1,0,0,0,.18.18c.09,0,.24.17.34.23a.44.44,0,0,0,.26.1c.1,0,.15,0,.24,0a.79.79,0,0,0,.22,0,1,1,0,0,0,.42-.25,1.89,1.89,0,0,0,.26-.39c.07-.13.18-.36.24-.48a1.59,1.59,0,0,1,.16-.32.82.82,0,0,0,.13-.36l.24-.92c0-.25.1-.59.11-.7s.08-.35.09-.41,0-.12.09-.32.06-.52.1-.66a3,3,0,0,0,.11-.32,3.22,3.22,0,0,1,.05-.48c0-.11.26-.68.31-.83s.16-.49.19-.67a7,7,0,0,1,.29-1c.07-.07.08-.15.12-.3a1.73,1.73,0,0,1,.13-.35c0-.09.16-.26.19-.33s0-.25.13-.31a.49.49,0,0,0,.16-.25c0-.09.18-.27.23-.38a3,3,0,0,1,.25-.54,1.51,1.51,0,0,0,.12-.2.45.45,0,0,1,.11-.2l.13-.21c.06,0,.11-.16.16-.22s.1-.19.15-.22.05-.09.08-.09a.15.15,0,0,0,.12-.16c0-.09.08-.18.12-.22a2.71,2.71,0,0,1,.24-.36,2.93,2.93,0,0,1,.3-.34c.07,0,.1-.11.16-.13s.11,0,.14,0,0,0,.1-.12.24-.26.31-.33.21-.28.28-.28.05,0,.15,0,.15-.08.23-.1a1.81,1.81,0,0,0,.27-.18c.08-.05.8-.55,1-.64a6.68,6.68,0,0,1,.74-.39l.38-.13c.11,0,.08-.06.16-.06a.65.65,0,0,0,.22,0,.74.74,0,0,1,.18-.15c.1,0,.59-.16.81-.2a9.63,9.63,0,0,1,1.11-.24l.86,0c.08,0,.06,0,.11,0h.83l.88,0a.3.3,0,0,1,.2.05c.06,0,.07,0,.21,0a5.46,5.46,0,0,0,.78,0,1.43,1.43,0,0,0,.67-.26.77.77,0,0,0,.21-.38c0-.05,0-.08,0-.14s0-.09,0-.14,0-.33,0-.38-.12-.14-.19-.23l-.19-.26c-.05,0-.24-.23-.31-.28s-.19,0-.22-.06a.5.5,0,0,1-.17-.15.23.23,0,0,0-.16-.06,2.38,2.38,0,0,1-.41-.05,1.06,1.06,0,0,1-.26-.12s-.17-.05-.21,0,0,.06-.11.07-.1,0-.15,0A.35.35,0,0,0,45.28,25.07Z" style="fill:#0068b6"/><path d="M41,31.22a1.09,1.09,0,0,0-.16.23,1.87,1.87,0,0,1-.14.21.93.93,0,0,0-.15.26c0,.11-.1.29-.12.34a2.56,2.56,0,0,1-.16.25.88.88,0,0,0-.07.3,1.6,1.6,0,0,0,.11.47,2,2,0,0,0,.17.36c.07.07,0,.09.09.14s.13.13.18.2a1.58,1.58,0,0,1,.14.23.19.19,0,0,0,.11.08l.2,0,.2.1a1.43,1.43,0,0,0,.28.07.76.76,0,0,1,.16,0,1.35,1.35,0,0,0,.34,0,1.17,1.17,0,0,0,.41-.1c.13-.05.23-.15.29-.16a1.2,1.2,0,0,0,.25-.13c.08-.05.11-.13.18-.17s.14,0,.19-.11a.43.43,0,0,0,.11-.17,2.48,2.48,0,0,0,0-.27,2.16,2.16,0,0,0,.09-.2c0-.08.07-.22.09-.24s0-.07,0-.09.12-.08,0-.15,0-.16,0-.19a.29.29,0,0,0,0-.22c-.06-.12-.06-.17-.09-.22a.57.57,0,0,1-.13-.19,1.83,1.83,0,0,0-.1-.2,5.16,5.16,0,0,0-.41-.39.41.41,0,0,0-.14-.15,2.09,2.09,0,0,1-.21-.05.52.52,0,0,0-.13-.06,1.36,1.36,0,0,0-.2,0c-.09,0-.18-.07-.27-.1s-.18-.09-.27-.09a.44.44,0,0,0-.22.05,1.5,1.5,0,0,0-.26,0l-.19.14C41.16,31.18,41.09,31.14,41,31.22Z" style="fill:#0068b6"/><path d="M25.19,48.78a3.53,3.53,0,0,0-.57,0c-.12,0-.11.1-.17.11a1.32,1.32,0,0,0-.31,0l-.4.25a.39.39,0,0,0-.16.15,1.54,1.54,0,0,0-.12.64,3.44,3.44,0,0,1,.07.55.13.13,0,0,0,.06.17c.06.06.08.15.17.17s.11,0,.19,0a.42.42,0,0,1,.15.15,4.2,4.2,0,0,0,.57.42c.2.1.53.28.79.38a6.07,6.07,0,0,0,.64.23c.1,0,.09.09.17.09a.84.84,0,0,1,.31,0,.92.92,0,0,0,.29.16c.07,0,.13,0,.2,0s.06.13.16.14.4,0,.5,0l.48.05a.49.49,0,0,1,.2.08c.07,0,1.47,0,1.7,0a3.45,3.45,0,0,0,.48,0,1.63,1.63,0,0,1,.29-.08c.09,0,.2,0,.33,0s.15,0,.22,0a.33.33,0,0,1,.21-.05.54.54,0,0,1,.19,0,.77.77,0,0,0,.3-.06c.08,0,.91-.11,1.09-.14s.35,0,.41-.06a.27.27,0,0,1,.21-.12A.27.27,0,0,0,34,52c.06,0,.2,0,.32-.1l.79-.31c.27-.11.58-.28.82-.4a3.88,3.88,0,0,1,.35-.19,1,1,0,0,1,.2-.08.88.88,0,0,0,.35-.18,1.57,1.57,0,0,0,.37-.36,1.44,1.44,0,0,1,.31-.39c.06,0,.13-.08.16-.16s0-.2,0-.23a.41.41,0,0,0,.08-.25,1.3,1.3,0,0,0,0-.45,1,1,0,0,0-.17-.32,1.08,1.08,0,0,0-.23-.16s-.09,0-.13,0-.09.08-.13.05a.13.13,0,0,1-.06-.09.13.13,0,0,0-.15-.1h-.24a.65.65,0,0,0-.16,0,1.17,1.17,0,0,0-.26,0,4.73,4.73,0,0,1-.54,0l-.31.09c-.14.05-.55.21-.75.3s-.48.21-.67.31-.62.29-.78.37a2.59,2.59,0,0,1-.34.17,2.06,2.06,0,0,0-.39.06l-.7.15a6.59,6.59,0,0,1-.88.1H29.58a5,5,0,0,1-.84-.1c-.17,0-.73-.12-.95-.17s-.78-.21-1.08-.3-.63-.16-.85-.25Z" style="fill:#0068b6"/><rect x="83.76" y="14.29" width="16.33" height="4.08" rx="0.92" style="fill:#0068b6"/><path d="M107.34,0H76.52a.92.92,0,0,0-.92.92V31.74a.92.92,0,0,0,.92.92h30.82a.92.92,0,0,0,.92-.92V.92A.92.92,0,0,0,107.34,0Zm-3.16,28.12a.47.47,0,0,1-.46.46H80.14a.47.47,0,0,1-.46-.46V4.54a.47.47,0,0,1,.46-.46h23.58a.47.47,0,0,1,.46.46Z" style="fill:#0068b6"/><path d="M140.92,64.4a.92.92,0,0,1-.93.91h-2.24a.91.91,0,0,1-.91-.91V53.53a.47.47,0,0,0-.47-.46H125.5a.93.93,0,0,1-.92-.92V49.9a.92.92,0,0,1,.92-.91H140a.92.92,0,0,1,.93.91Z" style="fill:#0068b6"/><path d="M130,62.59a2.72,2.72,0,1,1-2.71-2.72A2.72,2.72,0,0,1,130,62.59Z" style="fill:#0068b6"/><path d="M148.16,40.82H117.34a.92.92,0,0,0-.92.92V72.56a.92.92,0,0,0,.92.92h30.82a.92.92,0,0,0,.92-.92V41.74A.92.92,0,0,0,148.16,40.82ZM145,68.94a.46.46,0,0,1-.46.46H121a.47.47,0,0,1-.46-.46V45.36a.46.46,0,0,1,.46-.45h23.57a.45.45,0,0,1,.46.45Z" style="fill:#0068b6"/><path d="M91.93,60.31a.92.92,0,0,1-.92.92H88.77a.92.92,0,0,1-.92-.92v-15a.46.46,0,0,0-.46-.45H76.52A.93.93,0,0,1,75.6,44V41.74a.92.92,0,0,1,.92-.92H91a.92.92,0,0,1,.92.92Z" style="fill:#0068b6"/><path d="M108.26,41.74a.92.92,0,0,0-.92-.92H105.1a.91.91,0,0,0-.92.92v2.71a.47.47,0,0,1-.46.46H96.93a.91.91,0,0,0-.92.91v2.25a.92.92,0,0,0,.92.92h10.41a.92.92,0,0,0,.92-.92Z" style="fill:#0068b6"/><path d="M81,73.48a.89.89,0,0,0,.64-.27L89,65.84a.31.31,0,0,0,.09-.22.31.31,0,0,0-.31-.31H80.14a.46.46,0,0,1-.46-.45V61.69a.47.47,0,0,1,.46-.46h2.71a.92.92,0,0,0,.91-.92V58.07a.92.92,0,0,0-.91-.92H80.14a.47.47,0,0,1-.46-.46V53.53a.47.47,0,0,1,.46-.46h2.71a.92.92,0,0,0,.91-.92V49.9a.91.91,0,0,0-.91-.91H76.52a.92.92,0,0,0-.92.91V68.47a.92.92,0,0,0,.92.93h2.42a.31.31,0,0,1,.31.31.31.31,0,0,1-.09.21l-3,3a.27.27,0,0,0-.09.21.31.31,0,0,0,.3.31Z" style="fill:#0068b6"/><path d="M105.1,73.48a.91.91,0,0,1-.92-.92V68.38a.9.9,0,0,1,.27-.65l3.28-3.29a.31.31,0,0,1,.22-.09.31.31,0,0,1,.31.31v7.9a.92.92,0,0,1-.92.92Z" style="fill:#0068b6"/><path d="M108,58.41a.91.91,0,0,0,.27-.65V54a.92.92,0,0,0-.92-.92H105.1a.91.91,0,0,0-.92.92v2.08a.94.94,0,0,1-.27.65L87.67,73a.27.27,0,0,0-.09.21.31.31,0,0,0,.3.31h4.66a.91.91,0,0,0,.65-.27Z" style="fill:#0068b6"/><path d="M140.92,25.41a.93.93,0,0,0-.93-.92h-4.74a.46.46,0,0,1-.46-.46V8.62a.47.47,0,0,1,.46-.46h12.91a.91.91,0,0,0,.92-.91V5a.92.92,0,0,0-.92-.92H135.25a.46.46,0,0,1-.46-.46V.92a.92.92,0,0,0-.92-.92h-2.25a.92.92,0,0,0-.91.92v2.7a.46.46,0,0,1-.46.46H117.34a.93.93,0,0,0-.92.92V7.25a.92.92,0,0,0,.92.91h12.91a.47.47,0,0,1,.46.46V24a.47.47,0,0,1-.46.46H125.5a.92.92,0,0,0-.92.92v2.24a.93.93,0,0,0,.92.93h4.75a.46.46,0,0,1,.46.45v2.71a.92.92,0,0,0,.91.92h2.25a.92.92,0,0,0,.92-.92V29a.45.45,0,0,1,.46-.45H140a.93.93,0,0,0,.93-.92Z" style="fill:#0068b6"/><path d="M126.36,18.64a1,1,0,0,0,.26-.65V13.34a.3.3,0,0,0-.3-.31.31.31,0,0,0-.22.09l-9.41,9.41a1,1,0,0,0-.27.65v4.66a.3.3,0,0,0,.31.3.27.27,0,0,0,.21-.09Z" style="fill:#0068b6"/><path d="M139.14,18.64a.91.91,0,0,1-.27-.65V13.34a.3.3,0,0,1,.3-.31.27.27,0,0,1,.21.09l9.42,9.41a1,1,0,0,1,.27.65v4.66a.3.3,0,0,1-.31.3.27.27,0,0,1-.21-.09Z" style="fill:#0068b6"/><path d="M70.41,120.28H64.82a5.48,5.48,0,0,1,.25-11h5.34a1.43,1.43,0,1,1,0,2.86H65.07a2.63,2.63,0,0,0-.11,5.25h5.45a1.43,1.43,0,1,1,0,2.86Z" style="fill:#0068b6"/><path d="M122.94,98.55l-12.29,13h0a2.16,2.16,0,0,0-.27.33,2.86,2.86,0,1,0,4.68,3.28,2.77,2.77,0,0,0,.3-.56h0Z" style="fill:#0068b6"/><path d="M148.57,111.87a3,3,0,0,0-.27-.33h0L136,98.55l7.57,16h0a2.82,2.82,0,0,0,.31.56,2.86,2.86,0,0,0,4.68-3.28Z" style="fill:#0068b6"/><path d="M12.25,93.9a4.09,4.09,0,1,1-4.08-4.08A4.09,4.09,0,0,1,12.25,93.9Z" style="fill:#0068b6"/><path d="M8.17,108.24a4.09,4.09,0,1,1-4.09-4.09A4.09,4.09,0,0,1,8.17,108.24Z" style="fill:#0068b6"/><path d="M24.76,79.62a4.08,4.08,0,0,0-5,2.92,5.27,5.27,0,0,0-.13.86h0v16l7.74-14h0a4.47,4.47,0,0,0,.31-.82A4.08,4.08,0,0,0,24.76,79.62Z" style="fill:#0068b6"/><path d="M12.33,133.69h0V114.05l-9.5,17.19a5.16,5.16,0,0,0-.54,1.32,5.11,5.11,0,0,0,9.89,2.55A5.34,5.34,0,0,0,12.33,133.69Z" style="fill:#0068b6"/><path d="M53.51,93.9a2,2,0,0,0-2-2H29.41a2,2,0,0,0,0,4.08H51.47A2,2,0,0,0,53.51,93.9Z" style="fill:#0068b6"/><path d="M67.76,100a2,2,0,0,0-4.09,0,2.63,2.63,0,0,0,.06.49h0l2,7.78,2-7.78h0A2,2,0,0,0,67.76,100Z" style="fill:#0068b6"/><path d="M95.55,104a4.08,4.08,0,1,1-4.08-4.09A4.08,4.08,0,0,1,95.55,104Z" style="fill:#e50012"/><path d="M51.46,126.56l-.26,0H49.06a.47.47,0,0,1-.46-.46v-8a.46.46,0,0,1,.46-.46h2.41a2,2,0,0,0,0-4.09H49.06a.46.46,0,0,1-.46-.45V102.48A2.44,2.44,0,0,0,46.15,100H34.71a2,2,0,0,0,0,4.08h8.53a.46.46,0,0,1,.46.46v8.52a.45.45,0,0,1-.46.45H38a.46.46,0,0,1-.46-.45v-2.4h0a2.45,2.45,0,1,0-4.9,0v2.4a.46.46,0,0,1-.46.45H27a.45.45,0,0,1-.46-.45h0v-9.9a2.45,2.45,0,1,0-4.9,0h0v9.9a.46.46,0,0,1-.46.45H18.78a2,2,0,0,0,0,4.09h2.41a.46.46,0,0,1,.46.46v10.12h0a2.45,2.45,0,0,0,2.45,2.45H43.24a.46.46,0,0,1,.46.46v5.26h0a2.45,2.45,0,0,0,4.9,0h0v-5.26a.47.47,0,0,1,.46-.46h2.4v0a2,2,0,1,0,0-4.08Zm-13.89-6.07h0v-2.4a.46.46,0,0,1,.46-.46h5.21a.45.45,0,0,1,.46.46v8a.46.46,0,0,1-.46.46H27a.46.46,0,0,1-.46-.46h0v-8h0a.45.45,0,0,1,.46-.46h5.2a.46.46,0,0,1,.46.46v2.4h0a2.45,2.45,0,0,0,4.9,0Z" style="fill:#0068b6"/><path d="M105,90.25v0a2.46,2.46,0,0,0-2.45-2.46H89.43a2,2,0,0,0-2,2,1.93,1.93,0,0,0,1.9,2H99.61a.46.46,0,0,1,.46.46V118h0a2.45,2.45,0,0,0,4.9,0h0V90.25Z" style="fill:#0068b6"/><path d="M93.51,116.37H83.35a.47.47,0,0,1-.46-.46V90.23a2.45,2.45,0,1,0-4.9,0V118h0a2.45,2.45,0,0,0,2.45,2.45H93.51a2,2,0,0,0,0-4.08Z" style="fill:#0068b6"/><path d="M144.59,91.77H132.33a.46.46,0,0,1-.41-.45v-3h0a2.45,2.45,0,0,0-4.9,0h0v3a.45.45,0,0,1-.4.45H114.36a2,2,0,0,0,0,4.09h12.2a.45.45,0,0,1,.46.46v15.5a.45.45,0,0,1-.43.46h-4.88a2,2,0,0,0,0,4.09h4.88a.45.45,0,0,1,.43.45V120h0a2.45,2.45,0,1,0,4.9,0h0v-3.22a.45.45,0,0,1,.43-.45h4.88a2,2,0,1,0,0-4.09h-4.87a.46.46,0,0,1-.44-.46V96.32a.46.46,0,0,1,.46-.46h12.21a2,2,0,0,0,0-4.09Z" style="fill:#0068b6"/><path d="M108.55,127.78h0a1.23,1.23,0,1,0-2.45,0v7.37h0a1.23,1.23,0,0,1-2.29.62h0a1.22,1.22,0,0,0-2.29.6,1.16,1.16,0,0,0,.16.61h0a3.68,3.68,0,0,0,6.87-1.84h0Z" style="fill:#0068b6"/><path d="M91.92,126.06a6.63,6.63,0,1,0,6.63,6.63A6.63,6.63,0,0,0,91.92,126.06Zm0,10.81a4.18,4.18,0,1,1,4.17-4.18A4.18,4.18,0,0,1,91.92,136.87Z" style="fill:#0068b6"/><path d="M137.07,135.15a1.21,1.21,0,0,0-.95.44,4.18,4.18,0,1,1,0-5.81h0a1.23,1.23,0,1,0,1.84-1.62h0a6.63,6.63,0,1,0,.07,9h0a1.23,1.23,0,0,0-1-2Z" style="fill:#0068b6"/><path d="M64.5,126.55H60.81a1.22,1.22,0,0,0-1.22,1.23v9.82a1.23,1.23,0,1,0,2.45,0v-8.1a.51.51,0,0,1,.5-.49h2a1.23,1.23,0,1,1,0,2.45,1.23,1.23,0,0,0,0,2.46,3.69,3.69,0,0,0,0-7.37Z" style="fill:#0068b6"/><path d="M147.85,126.55h-4.92a1.23,1.23,0,0,0,0,2.46h.73a.5.5,0,0,1,.5.5h0v8.08a1.23,1.23,0,0,0,2.46,0h0v-8.08h0a.5.5,0,0,1,.5-.5h.73a1.23,1.23,0,1,0,0-2.46Z" style="fill:#0068b6"/><path d="M117.39,133.92h3.19a1.23,1.23,0,1,0,0-2.45H117.4a.5.5,0,0,1-.5-.5h0v-1.44a.5.5,0,0,1,.5-.5h3.18a1.23,1.23,0,1,0,0-2.46h-4.91a1.23,1.23,0,0,0-1.23,1.23v9.82h0a1.23,1.23,0,0,0,1.23,1.23h4.91a1.23,1.23,0,1,0,0-2.46H117.4a.51.51,0,0,1-.5-.49v-1.47A.5.5,0,0,1,117.39,133.92Z" style="fill:#0068b6"/><path d="M80.33,137.14h0L79,134h0a.5.5,0,0,1,.16-.61,3.68,3.68,0,0,0-1.85-6.86H73.67a1.23,1.23,0,0,0-1.23,1.23v9.82a1.23,1.23,0,1,0,2.45,0v-8.1a.51.51,0,0,1,.5-.49h2a1.23,1.23,0,0,1,0,2.45h-.2a1.23,1.23,0,0,0-1.23,1.23,1.34,1.34,0,0,0,.1.49h0l2,4.86a.25.25,0,0,0,0,.07h0a1.23,1.23,0,0,0,2.34-.52,1.45,1.45,0,0,0-.09-.46Z" style="fill:#0068b6"/></svg>